<svg xmlns="http://www.w3.org/2000/svg" width="13.5" height="18" viewBox="0 0 13.5 18">
  <g id="fi-rr-user" transform="translate(-3)">
    <path id="Path_1571" data-name="Path 1571" d="M10.5,9.01A4.5,4.5,0,1,0,6,4.5a4.5,4.5,0,0,0,4.5,4.5Zm0-7.508a3,3,0,1,1-3,3A3,3,0,0,1,10.5,1.5Z" transform="translate(-0.748)" fill="#3e5570"/>
    <path id="Path_1572" data-name="Path 1572" d="M9.75,14A6.761,6.761,0,0,0,3,20.757a.75.75,0,1,0,1.5,0,5.25,5.25,0,1,1,10.5,0,.75.75,0,1,0,1.5,0A6.761,6.761,0,0,0,9.75,14Z" transform="translate(0 -3.508)" fill="#3e5570"/>
  </g>
</svg>
