<svg xmlns="http://www.w3.org/2000/svg" width="18" height="16.482" viewBox="0 0 18 16.482">
  <path id="fi-rr-list-check" d="M3,4.506a2.236,2.236,0,0,1-1.591-.659L.25,2.816a.751.751,0,1,1,1-1.12l1.189,1.06a.75.75,0,0,0,1.092.03L6.233.213A.75.75,0,0,1,7.266,1.3L4.575,3.859A2.223,2.223,0,0,1,3,4.506Zm15-1.5a.75.75,0,0,0-.75-.75h-7.5a.75.75,0,0,0,0,1.5h7.5A.75.75,0,0,0,18,3.006ZM4.575,9.859,7.266,7.3A.75.75,0,1,0,6.233,6.213l-2.7,2.573a.767.767,0,0,1-1.06,0L1.28,7.6A.75.75,0,1,0,.219,8.658L1.408,9.846a2.25,2.25,0,0,0,3.169.013ZM18,9.005a.75.75,0,0,0-.75-.75h-7.5a.75.75,0,0,0,0,1.5h7.5A.75.75,0,0,0,18,9.005ZM4.575,15.859,7.263,13.3A.75.75,0,1,0,6.23,12.212l-2.7,2.573a.75.75,0,0,1-1.092-.03L1.249,13.7a.751.751,0,1,0-1,1.12l1.158,1.03a2.25,2.25,0,0,0,3.169.013ZM18,15.005a.75.75,0,0,0-.75-.75h-7.5a.75.75,0,0,0,0,1.5h7.5A.75.75,0,0,0,18,15.005Z" transform="translate(0.001 -0.023)" fill="#3e5570"/>
</svg>
