<svg xmlns="http://www.w3.org/2000/svg" width="18.203" height="17.199" viewBox="0 0 18.203 17.199">
  <g id="online-shopping" transform="translate(-386.44 -297.97)">
    <path id="Path_1599" data-name="Path 1599" d="M404.429,308.12a.665.665,0,0,0-.45-.175h-.028a.665.665,0,0,0-.634.687v4.376a.839.839,0,0,1-.838.838H388.6a.84.84,0,0,1-.838-.838v-4.37a.557.557,0,0,0,0-.058.664.664,0,0,0-.663-.636h-.027a.664.664,0,0,0-.635.687v4.376a2.168,2.168,0,0,0,2.163,2.16h13.875a2.168,2.168,0,0,0,2.163-2.16v-4.37a.557.557,0,0,0,0-.058A.659.659,0,0,0,404.429,308.12Z" fill="#3e5570"/>
    <path id="Path_1600" data-name="Path 1600" d="M403.31,298.14a2.052,2.052,0,0,0-.83-.17H388.6a2.052,2.052,0,0,0-.83.17,2.149,2.149,0,0,0-1.33,1.99v4.11a2.687,2.687,0,0,0,2.68,2.68,2.642,2.642,0,0,0,2.07-1,2.821,2.821,0,0,0,2.15,1,2.849,2.849,0,0,0,2.2-1.06,2.849,2.849,0,0,0,2.2,1.06,2.821,2.821,0,0,0,2.15-1,2.668,2.668,0,0,0,4.75-1.68v-4.11A2.149,2.149,0,0,0,403.31,298.14Zm-12.83,6.1a1.355,1.355,0,0,1-2.71,0v-4.11a.843.843,0,0,1,.83-.84h1.88Zm4.4-.17a1.54,1.54,0,0,1-3.08.02v-4.8h3.08Zm4.4.02a1.54,1.54,0,0,1-3.08-.03v-4.77h3.08Zm4.03.15a1.355,1.355,0,0,1-2.71,0v-4.95h1.88a.845.845,0,0,1,.83.76Z" fill="#3e5570"/>
  </g>
</svg>
