<svg xmlns="http://www.w3.org/2000/svg" width="20.57" height="20.57" viewBox="0 0 20.57 20.57">
  <path id="Path_1585" data-name="Path 1585" d="M58.909,3.394H56.242V.727a.727.727,0,0,0-1.455,0V3.394H51.393V.727a.727.727,0,1,0-1.455,0V3.394H47.272a.727.727,0,0,0,0,1.455h.242V8a5.584,5.584,0,0,0,4.849,5.528v1.744a.727.727,0,1,0,1.455,0V13.528A5.584,5.584,0,0,0,58.666,8V4.848h.242a.727.727,0,1,0,0-1.455ZM57.212,8a4.121,4.121,0,0,1-8.242,0V4.848h8.242Z" transform="translate(-21.599 -32.912) rotate(45)" fill="#3e5570"/>
</svg>
