<svg xmlns="http://www.w3.org/2000/svg" width="17.2" height="21.693" viewBox="0 0 17.2 21.693">
  <g id="shopping-bag" transform="translate(-53.02)">
    <g id="Group_666" data-name="Group 666" transform="translate(53.02)">
      <g id="Group_665" data-name="Group 665">
        <path id="Path_1606" data-name="Path 1606" d="M70.21,17.889,69.241,5.682a1.526,1.526,0,0,0-1.514-1.4H65.813V4.193a4.193,4.193,0,1,0-8.386,0v.086H55.513A1.525,1.525,0,0,0,54,5.68l-.969,12.21a3.532,3.532,0,0,0,3.522,3.8H66.688a3.532,3.532,0,0,0,3.522-3.8ZM58.7,4.193a2.923,2.923,0,0,1,5.845,0v.086H58.7Zm9.65,15.5a2.238,2.238,0,0,1-1.659.725H56.552A2.261,2.261,0,0,1,54.3,17.989l.969-12.21a.249.249,0,0,1,.247-.229h1.913V7.115a.635.635,0,1,0,1.271,0V5.55h5.845V7.115a.635.635,0,1,0,1.271,0V5.55h1.914a.25.25,0,0,1,.247.231l.969,12.207A2.238,2.238,0,0,1,68.347,19.7Z" transform="translate(-53.02 0)" fill="#3e5570"/>
      </g>
    </g>
    <g id="Group_668" data-name="Group 668" transform="translate(58.576 10.591)">
      <g id="Group_667" data-name="Group 667">
        <path id="Path_1607" data-name="Path 1607" d="M189.955,250.079a.634.634,0,0,0-.9,0l-2.833,2.833-1.089-1.089a.635.635,0,0,0-.9.9l1.538,1.538a.634.634,0,0,0,.9,0l3.282-3.282A.635.635,0,0,0,189.955,250.079Z" transform="translate(-184.052 -249.893)" fill="#3e5570"/>
      </g>
    </g>
  </g>
</svg>
