<svg xmlns="http://www.w3.org/2000/svg" width="16.196" height="18" viewBox="0 0 16.196 18">
  <g id="fi-rr-settings" transform="translate(-1.203)">
    <path id="Path_1601" data-name="Path 1601" d="M11,8a3,3,0,1,0,3,3A3,3,0,0,0,11,8Zm0,4.505a1.5,1.5,0,1,1,1.5-1.5A1.5,1.5,0,0,1,11,12.505Z" transform="translate(-1.703 -2.003)" fill="#3e5570"/>
    <path id="Path_1602" data-name="Path 1602" d="M16.271,10.425l-.333-.192a6.825,6.825,0,0,0,0-2.468l.333-.192a2.251,2.251,0,1,0-2.25-3.9l-.334.193a6.733,6.733,0,0,0-2.137-1.232V2.25a2.25,2.25,0,1,0-4.5,0v.385A6.733,6.733,0,0,0,4.915,3.869l-.335-.194a2.251,2.251,0,1,0-2.25,3.9l.333.192a6.825,6.825,0,0,0,0,2.468l-.333.192a2.251,2.251,0,1,0,2.25,3.9l.334-.193a6.733,6.733,0,0,0,2.138,1.232v.385a2.25,2.25,0,0,0,4.5,0v-.385a6.733,6.733,0,0,0,2.136-1.235l.335.193a2.251,2.251,0,1,0,2.25-3.9ZM14.36,7.593a5.286,5.286,0,0,1,0,2.812.75.75,0,0,0,.348.85l.813.469a.75.75,0,1,1-.75,1.3l-.815-.471a.75.75,0,0,0-.911.124,5.238,5.238,0,0,1-2.432,1.406.75.75,0,0,0-.563.727v.94a.75.75,0,0,1-1.5,0v-.939a.75.75,0,0,0-.563-.727,5.238,5.238,0,0,1-2.431-1.409.75.75,0,0,0-.911-.124l-.813.47a.75.75,0,1,1-.75-1.3l.813-.469a.75.75,0,0,0,.348-.85,5.286,5.286,0,0,1,0-2.813.75.75,0,0,0-.349-.847L3.08,6.275a.75.75,0,1,1,.75-1.3l.814.471a.75.75,0,0,0,.911-.121A5.238,5.238,0,0,1,7.987,3.919a.75.75,0,0,0,.563-.73V2.25a.75.75,0,0,1,1.5,0v.939a.75.75,0,0,0,.563.727,5.238,5.238,0,0,1,2.432,1.409.75.75,0,0,0,.911.124l.813-.47a.75.75,0,1,1,.75,1.3l-.813.469a.75.75,0,0,0-.347.847Z" transform="translate(0)" fill="#3e5570"/>
  </g>
</svg>
