<svg xmlns="http://www.w3.org/2000/svg" xmlns:xlink="http://www.w3.org/1999/xlink" width="755.003" height="718.09" viewBox="0 0 755.003 718.09">
  <defs>
    <linearGradient id="linear-gradient" x1="1" y1="0.5" x2="0" y2="0.5" gradientUnits="objectBoundingBox">
      <stop offset="0.043" stop-color="#7b8bff"/>
      <stop offset="1" stop-color="#6f80ff"/>
    </linearGradient>
    <linearGradient id="linear-gradient-4" x1="0.5" y1="0.964" x2="0.5" y2="0.054" gradientUnits="objectBoundingBox">
      <stop offset="0.033" stop-color="#214f95"/>
      <stop offset="1" stop-color="#0e408c"/>
    </linearGradient>
    <linearGradient id="linear-gradient-5" x1="1" y1="0.5" x2="0" y2="0.5" xlink:href="#linear-gradient-4"/>
    <linearGradient id="linear-gradient-7" x1="0.669" y1="0.11" x2="0.4" y2="0.574" gradientUnits="objectBoundingBox">
      <stop offset="0" stop-color="#28c5f4"/>
      <stop offset="1" stop-color="#0077ec"/>
    </linearGradient>
    <linearGradient id="linear-gradient-8" x1="0.942" y1="0.057" x2="0.308" y2="0.694" gradientUnits="objectBoundingBox">
      <stop offset="0" stop-color="#008bec"/>
      <stop offset="1" stop-color="#0077ec"/>
    </linearGradient>
    <linearGradient id="linear-gradient-9" x1="0.197" y1="0.201" x2="0.6" y2="0.695" xlink:href="#linear-gradient-7"/>
    <linearGradient id="linear-gradient-10" x1="1" y1="0.5" x2="0" y2="0.5" xlink:href="#linear-gradient-8"/>
    <linearGradient id="linear-gradient-11" x1="1" y1="0.5" x2="0" y2="0.5" gradientUnits="objectBoundingBox">
      <stop offset="0.062" stop-color="#e38204"/>
      <stop offset="1" stop-color="#e35802"/>
    </linearGradient>
    <linearGradient id="linear-gradient-12" x1="0" y1="0.5" x2="1" y2="0.5" xlink:href="#linear-gradient-11"/>
  </defs>
  <g id="Group_640" data-name="Group 640" transform="translate(-39.997)">
    <g id="Group_341" data-name="Group 341" transform="translate(40)">
      <g id="Group_327" data-name="Group 327" transform="translate(0 14.947)" opacity="0.4">
        <path id="Path_825" data-name="Path 825" d="M692.325,341.688a1.968,1.968,0,0,1-.3.089,2.117,2.117,0,0,1-2.541-1.592C658.357,204.158,541.865,133.071,540.693,132.37a2.119,2.119,0,1,1,2.178-3.636c1.189.707,119.221,72.733,150.752,210.5A2.12,2.12,0,0,1,692.325,341.688Z" transform="translate(-505.695 -93.836)" fill="#007fec"/>
        <path id="Path_826" data-name="Path 826" d="M647.684,168.835s-28.533-6.209-51.154,3.7a84.236,84.236,0,0,0-37.655,32.948s32.965,5.5,53.819-3.617S647.684,168.835,647.684,168.835Z" transform="translate(-511.378 -28.826)" fill="#007fec"/>
        <path id="Path_827" data-name="Path 827" d="M644.761,150.551s-23.291-5.013-41.683,2.625a66.284,66.284,0,0,0-30.523,25.58s26.9,4.48,43.856-2.547S644.761,150.551,644.761,150.551Z" transform="translate(-545.244 -59.196)" fill="#007fec"/>
        <path id="Path_828" data-name="Path 828" d="M584.9,121.5s-15.985,15.893-19.142,34.374a61.863,61.863,0,0,0,5.3,37.273s17.4-19.026,20.317-36.054S584.9,121.5,584.9,121.5Z" transform="translate(-471.813 -105.547)" fill="#007fec"/>
        <path id="Path_829" data-name="Path 829" d="M642.707,143.779s-15.692-9.106-30.759-7.664a50.25,50.25,0,0,0-27.989,12s18.429,9.541,32.316,8.224S642.707,143.779,642.707,143.779Z" transform="translate(-573.855 -81.115)" fill="#007fec"/>
        <path id="Path_830" data-name="Path 830" d="M589.857,115.566s-10.743,14.619-10.932,29.756a50.267,50.267,0,0,0,8.917,29.119s11.472-17.3,11.655-31.243S589.857,115.566,589.857,115.566Z" transform="translate(-517.106 -115.566)" fill="#007fec"/>
        <path id="Path_831" data-name="Path 831" d="M634.97,145.923s-5.516-12.182-16.06-18.354a48.236,48.236,0,0,0-24.391-6.408s7.067,13.688,16.781,19.378S634.97,145.923,634.97,145.923Z" transform="translate(-594.519 -106.142)" fill="#007fec"/>
      </g>
      <path id="Path_832" data-name="Path 832" d="M818.47,117.985C579.523,101.912,540.48,380.97,410.9,439.526c-133.115,60.158-128.224,195.013,34.514,268.333,158.434,71.378,327.769,50.187,422.517,5.567,156.643-73.769,243.837-286.4,139.476-345.035C913.221,315.469,976.288,128.6,818.47,117.985Z" transform="translate(-308.765 -107.66)" fill="#e3ecfd"/>
      <path id="Path_833" data-name="Path 833" d="M671.111,766.971c79.951,0,152.936-16.64,206.442-41.837,114.785-54.059,186.539-174.17,189.593-259.061,1.6-44.463-14.682-77.585-47.085-95.794-39.733-22.328-51.524-67.666-64.008-115.664-17.116-65.8-34.81-133.836-129.518-140.209l-.1,1.425.1-1.425c-153.319-10.293-226.968,98.484-291.954,194.471-38.9,57.458-75.643,111.728-124.889,133.986-61.679,27.874-97.037,72.723-97.008,123.04.035,59.736,48.239,115.7,132.249,153.557C519.747,753.166,598.319,766.965,671.111,766.971ZM806.68,116.584c6.409,0,12.95.219,19.662.671,92.652,6.231,110.084,73.258,126.943,138.075,12.085,46.466,24.583,94.513,65.376,117.435,31.41,17.653,47.19,49.879,45.629,93.205-3.023,84.035-74.155,202.986-187.955,256.58-101.627,47.86-274.067,64.66-430.226-5.7-82.942-37.368-130.53-92.39-130.565-150.952-.027-49.149,34.716-93.048,95.327-120.441,49.982-22.587,86.945-77.184,126.078-134.986C598.648,219.345,668.231,116.584,806.68,116.584Z" transform="translate(-312.254 -113.726)" fill="#bed6ff"/>
      <path id="Path_834" data-name="Path 834" d="M337.1,275.033a17.372,17.372,0,1,0,17.364-17.378A17.372,17.372,0,0,0,337.1,275.033Z" transform="translate(317.495 127.137)" fill="#fff"/>
      <g id="Group_337" data-name="Group 337" transform="translate(626.564 106.812) rotate(135)" opacity="0.6">
        <path id="Path_860" data-name="Path 860" d="M11.012,54.333l6.365-6.145a30.278,30.278,0,0,1-.086-42.043L10.929,0a39.121,39.121,0,0,0,.083,54.333Z" transform="translate(60.118 41.664)" fill="#0085ec"/>
        <path id="Path_861" data-name="Path 861" d="M18.537,94.841,25,88.8a60.1,60.1,0,0,1,.637-82.669L19.252,0a68.961,68.961,0,0,0-.715,94.841Z" transform="translate(30.291 20.984)" fill="#0085ec"/>
        <path id="Path_862" data-name="Path 862" d="M26.212,135.983l6.511-5.992A90.376,90.376,0,0,1,34.094,6.134L27.721,0a99.221,99.221,0,0,0-1.509,135.983Z" transform="translate(0 0)" fill="#0085ec"/>
      </g>
    </g>
    <line id="Line_5" data-name="Line 5" x2="755" transform="translate(39.997 717)" fill="none" stroke="#d7e3f4" stroke-miterlimit="10" stroke-width="2.181"/>
    <g id="Group_379" data-name="Group 379" transform="translate(178.835 71.82)">
      <rect id="Rectangle_146" data-name="Rectangle 146" width="371.31" height="335.099" rx="8.662" transform="translate(0 53.994)" fill="#d7e3f4"/>
      <g id="Group_376" data-name="Group 376" transform="translate(58.883 160.531)">
        <rect id="Rectangle_149" data-name="Rectangle 149" width="253.434" height="36.345" transform="translate(0.055 134.413)" fill="#abc9f4"/>
        <g id="Group_394" data-name="Group 394" transform="translate(0.055 64.008)">
          <rect id="Rectangle_148" data-name="Rectangle 148" width="253.434" height="36.345" fill="#fff"/>
          <g id="Group_373" data-name="Group 373" transform="translate(27.587 13.998)">
            <path id="Path_1341" data-name="Path 1341" d="M234.279,248.625a4.175,4.175,0,1,0,4.174-4.174A4.176,4.176,0,0,0,234.279,248.625Z" transform="translate(-44.367 -244.451)" fill="#1d262d"/>
            <path id="Path_1342" data-name="Path 1342" d="M251.862,248.625a4.175,4.175,0,1,0,4.176-4.174A4.176,4.176,0,0,0,251.862,248.625Z" transform="translate(-104.154 -244.451)" fill="#1d262d"/>
            <path id="Path_1343" data-name="Path 1343" d="M269.445,248.625a4.174,4.174,0,1,0,4.174-4.174A4.174,4.174,0,0,0,269.445,248.625Z" transform="translate(-163.938 -244.451)" fill="#1d262d"/>
            <path id="Path_1344" data-name="Path 1344" d="M243.071,248.625a4.174,4.174,0,1,0,4.174-4.174A4.174,4.174,0,0,0,243.071,248.625Z" transform="translate(-74.26 -244.451)" fill="#1d262d"/>
            <path id="Path_1345" data-name="Path 1345" d="M260.654,248.625a4.174,4.174,0,1,0,4.174-4.174A4.176,4.176,0,0,0,260.654,248.625Z" transform="translate(-134.046 -244.451)" fill="#1d262d"/>
            <path id="Path_1346" data-name="Path 1346" d="M295.819,248.625a4.174,4.174,0,1,0,4.174-4.174A4.174,4.174,0,0,0,295.819,248.625Z" transform="translate(-253.616 -244.451)" fill="#1d262d"/>
            <path id="Path_1347" data-name="Path 1347" d="M278.236,248.625a4.175,4.175,0,1,0,4.176-4.174A4.176,4.176,0,0,0,278.236,248.625Z" transform="translate(-193.832 -244.451)" fill="#1d262d"/>
            <path id="Path_1348" data-name="Path 1348" d="M287.028,248.625a4.174,4.174,0,1,0,4.174-4.174A4.176,4.176,0,0,0,287.028,248.625Z" transform="translate(-223.724 -244.451)" fill="#1d262d"/>
            <path id="Path_1349" data-name="Path 1349" d="M313.4,248.625a4.175,4.175,0,1,0,4.174-4.174A4.176,4.176,0,0,0,313.4,248.625Z" transform="translate(-313.401 -244.451)" fill="#1d262d"/>
            <path id="Path_1350" data-name="Path 1350" d="M304.61,248.625a4.175,4.175,0,1,0,4.174-4.174A4.176,4.176,0,0,0,304.61,248.625Z" transform="translate(-283.509 -244.451)" fill="#1d262d"/>
          </g>
        </g>
        <g id="Group_393" data-name="Group 393" transform="translate(0 0)">
          <rect id="Rectangle_147" data-name="Rectangle 147" width="253.434" height="36.345" fill="#fff"/>
          <rect id="Rectangle_152" data-name="Rectangle 152" width="157.584" height="7.83" transform="translate(47.889 14.682)" fill="#1d262d"/>
        </g>
      </g>
      <g id="Group_378" data-name="Group 378" transform="translate(126.584 0)">
        <circle id="Ellipse_16" data-name="Ellipse 16" cx="59.755" cy="59.755" r="59.755" fill="#00a5ff"/>
        <g id="Group_377" data-name="Group 377" transform="translate(28 33)">
          <g id="Subtraction_1" data-name="Subtraction 1" transform="translate(51.806 53.833) rotate(180)" fill="none">
            <path d="M51.806,0H0A26.753,26.753,0,0,0,3.663,7.825a27.015,27.015,0,0,0,5.867,6.2,26.808,26.808,0,0,0,7.578,4.081,26.865,26.865,0,0,0,8.8,1.47,26.863,26.863,0,0,0,8.8-1.47,26.8,26.8,0,0,0,7.577-4.081,27.009,27.009,0,0,0,5.867-6.2A26.751,26.751,0,0,0,51.806,0Z" stroke="none"/>
            <path d="M 2.795883178710938 2.000001907348633 C 3.461803436279297 3.646306991577148 4.304370880126953 5.218425750732422 5.314304351806641 6.696551322937012 C 6.812046051025391 8.888541221618652 8.640117645263672 10.82017135620117 10.74771499633789 12.43778133392334 C 12.87681579589844 14.07183074951172 15.23643493652344 15.34275054931641 17.76105499267578 16.2152214050293 C 20.37283706665039 17.11781120300293 23.11233711242676 17.57546043395996 25.90346717834473 17.57546043395996 C 28.69471549987793 17.57546043395996 31.43420600891113 17.11781120300293 34.04582595825195 16.21524047851563 C 36.57058715820313 15.34267139434814 38.93010711669922 14.07176113128662 41.05892562866211 12.43777084350586 C 43.16644668579102 10.82029151916504 44.9943962097168 8.888701438903809 46.49201583862305 6.696620941162109 C 47.50197982788086 5.218379974365234 48.34457015991211 3.646130561828613 49.0103874206543 2.000001907348633 L 2.795883178710938 2.000001907348633 M -3.814697265625e-06 1.9073486328125e-06 L 51.80622482299805 1.9073486328125e-06 L 51.80581665039063 0.001241683959960938 C 51.01694488525391 2.790220260620117 49.78476715087891 5.42246150970459 48.14339447021484 7.824871063232422 C 46.52614593505859 10.19205093383789 44.55224609375 12.27785110473633 42.27660751342773 14.02436065673828 C 39.97698593139648 15.78945159912109 37.42763519287109 17.16254043579102 34.69912719726563 18.10553169250488 C 31.87687683105469 19.08090209960938 28.91762542724609 19.57546043395996 25.90346717834473 19.57546043395996 C 22.88943672180176 19.57546043395996 19.93018531799316 19.08090209960938 17.10779571533203 18.10553169250488 C 14.37928771972656 17.1625919342041 11.82992553710938 15.78950119018555 9.530036926269531 14.02436065673828 C 7.254127502441406 12.27758121490479 5.280227661132813 10.19177150726318 3.662975311279297 7.824871063232422 C 2.022285461425781 5.423581123352051 0.7895545959472656 2.791330337524414 -3.814697265625e-06 1.9073486328125e-06 Z M 51.80484771728516 1.9073486328125e-06 L 51.80622482299805 1.9073486328125e-06 L 51.80484771728516 1.9073486328125e-06 Z" stroke="none" fill="#fff"/>
          </g>
          <g id="Ellipse_18" data-name="Ellipse 18" transform="translate(11.637 0)" fill="none" stroke="#fff" stroke-width="2">
            <circle cx="14.682" cy="14.682" r="14.682" stroke="none"/>
            <circle cx="14.682" cy="14.682" r="13.682" fill="none"/>
          </g>
          <line id="Line_9" data-name="Line 9" x2="19" transform="translate(44.41 30.189)" fill="none" stroke="#fff" stroke-width="2"/>
          <line id="Line_10" data-name="Line 10" x2="19" transform="translate(53.91 20.689) rotate(90)" fill="none" stroke="#fff" stroke-width="2"/>
        </g>
      </g>
    </g>
    <g id="Group_638" data-name="Group 638" transform="translate(540.316 233.269)">
      <g id="Group_626" data-name="Group 626" transform="translate(12.377 80.438)">
        <path id="Path_1537" data-name="Path 1537" d="M177.345,226.008a10.38,10.38,0,0,1,3.4,10.194c-3.385,16.727-16.486,80.337-28.849,78.3-14.533-2.394,3.733-59.011,9.6-72.522C167.145,228.963,170.064,220.248,177.345,226.008Z" transform="translate(-101.716 -224.199)" fill="#f2bc97"/>
        <path id="Path_1538" data-name="Path 1538" d="M213.6,306.6a11.078,11.078,0,0,0-1.183-10.206c-9.685-15.011-45.185-69.115-52.909-67.831-8.964,1.492,39.262,79.692,43.469,82.059C206.636,312.685,211.356,311.975,213.6,306.6Z" transform="translate(-158.401 -220.1)" fill="#f2bc97"/>
      </g>
      <path id="Path_1539" data-name="Path 1539" d="M215.052,223.526l-1.728,28.526-2.792,45.912s-7.514,21.61-16.358,20.646c-6.35-.731-25.5-32.249-35.84-50,0-.033-.033-.066-.033-.1-4.055-6.916-6.716-11.737-6.716-11.737l13.6-9.409,26.2,33.712C207.439,230.475,215.052,223.526,215.052,223.526Z" transform="translate(-133.476 -144.396)" fill="#00a5ff"/>
      <path id="Path_1540" data-name="Path 1540" d="M207.465,245.161l-2.792,45.912s-7.514,21.61-16.358,20.646c-6.35-.731-25.5-32.249-35.84-50,10.606,13.865,30.051,39.565,37.189,39.381,8.348-.218,14.31-70.266,14.31-70.266Z" transform="translate(-127.616 -137.505)" opacity="0.5" fill="url(#linear-gradient)" style="mix-blend-mode: multiply;isolation: isolate"/>
      <g id="Group_630" data-name="Group 630" transform="translate(60.656 1.999)">
        <g id="Group_629" data-name="Group 629">
          <g id="Group_627" data-name="Group 627">
            <path id="Path_1541" data-name="Path 1541" d="M174.493,247.043a21.447,21.447,0,0,1-15.969,7.724,9.7,9.7,0,0,1-8.315-4.526l1.409-5.052c.014.021.076-.459.1-.5l-.01-.34a6.681,6.681,0,0,1-2.3.4s-.534-.008-.363.016c-3.383-.076-7.095-.682-9.028-2.732-4.158-4.345-7.994-12.423-8.15-17.988-.155-5.594-3.167-15.3-3.263-17.689s2.74-5.777,3.533-8.148l-.175-.288s23.5-23.664,35.045-9.661,6.144,40.484,6.144,40.484l.051,1.79c-.408.665-.742,1.178-.974,1.525.231-.348.565-.861.974-1.525Zm-3.816-13.291a28.411,28.411,0,0,0,1.467-2.674h0A28.411,28.411,0,0,1,170.676,233.752Z" transform="translate(-108.922 -183.833)" fill="#f2bc97"/>
            <path id="Path_1542" data-name="Path 1542" d="M198.205,307.167c.033,3.492.033,6.982,0,10.441-.066,25.232-.8,48.407-3.092,48.539-22.176,1.263-69.352,5.42-81.653-6.117-6.063-23.6-1.29-80.139-.9-112.211.152-12.4,7.9-23.668,19.7-27.5a22.929,22.929,0,0,1,6.725-1.257c1.6,10.441,26.163-2.06,23.7-3.323,24.436,2.958,37.136,8.643,34.709,43.951C197.739,268.8,198.139,287.753,198.205,307.167Z" transform="translate(-97.293 -153.737)" fill="#00a5ff"/>
            <path id="Path_1543" data-name="Path 1543" d="M156.107,230.226l4.011,42.714L113.935,264.7l53.88,17.237,2.168-12.034Z" transform="translate(-75.901 -140.076)" opacity="0.5" fill="url(#linear-gradient)" style="mix-blend-mode: multiply;isolation: isolate"/>
            <path id="Path_1544" data-name="Path 1544" d="M176.1,270.037c.033,3.492.033,6.982,0,10.441-28.06-5.387-65.7-25.368-65.7-25.368l62.769,13.433S174.341,269.139,176.1,270.037Z" transform="translate(-75.192 -116.606)" opacity="0.5" fill="url(#linear-gradient)" style="mix-blend-mode: multiply;isolation: isolate"/>
            <path id="Path_1545" data-name="Path 1545" d="M105.4,410l2.62,10.809,15.476-.655.9-9.007Z" transform="translate(-13.739 29.482)" fill="#f2bc97"/>
            <path id="Path_1546" data-name="Path 1546" d="M129.142,447.47H104.374a3.463,3.463,0,0,1-3.457-3.432c-.07-5.307.9-11.91,3.142-16.179,2.794-5.291,3.06-12.794,3.06-12.794h16.2c.4,3.927,1.232,8.286,3.061,10.814,2.6,3.653,4.9,12.182,6.121,17.36A3.442,3.442,0,0,1,129.142,447.47Z" transform="translate(-13.213 34.262)" fill="#00a5ff"/>
            <path id="Path_1547" data-name="Path 1547" d="M151.109,419.947l1.17-8.671,19.591-.246-2.028,8.781Z" transform="translate(-150.021 30.456)" fill="#f2bc97"/>
            <path id="Path_1548" data-name="Path 1548" d="M213.928,526H195.007L160.143,354.472,126.78,528.305H104.548L120.729,290c12.942,5.519,69.432,7.619,82.525,4.646L216.872,526Z" transform="translate(-104.548 -83.7)" fill="url(#linear-gradient-4)"/>
          </g>
          <g id="Group_628" data-name="Group 628" transform="translate(0 106.137)">
            <path id="Path_1549" data-name="Path 1549" d="M152.095,416.249H171.26" transform="translate(-151.328 -70.759)" fill="none"/>
            <path id="Path_1550" data-name="Path 1550" d="M106.941,411.451v7.023s-.766,6.9-3.342,11.776c-2.546,4.844-2.79,12.967-2.176,18.089H131.2s-2.944-14.9-6.5-19.9c-1.687-2.332-2.454-6.348-2.821-9.967a65.005,65.005,0,0,1-.245-7.023" transform="translate(-12.25 -75.284)" fill="none"/>
            <path id="Path_1551" data-name="Path 1551" d="M105.811,415.065h15.823" transform="translate(-11.763 -71.875)" fill="none"/>
            <path id="Path_1552" data-name="Path 1552" d="M111.586,257.434l8.28-16.344s19.5,11.315,29.406,15.209c2.7,1.073,4.693,1.562,5.367,1.135l-5.12-18.981-.247,17.846v.214" transform="translate(-55.992 -238.453)" fill="none"/>
            <path id="Path_1553" data-name="Path 1553" d="M124.235,291.49l-.031.4L104.548,526.9H126.78l33.363-173.833L195.008,524.6h21.864l-14.934-230.47-.031-.46" transform="translate(-104.548 -188.429)" fill="none"/>
            <path id="Path_1554" data-name="Path 1554" d="M111.46,248.221a1.163,1.163,0,0,0,.122.091c1.932,1.687,26.954,23.12,43.176,28.518" transform="translate(-55.866 -229.24)" fill="none"/>
            <path id="Path_1555" data-name="Path 1555" d="M103.728,248.221l15.148,27.567.123.245" transform="translate(-5.08 -229.24)" fill="none"/>
          </g>
        </g>
      </g>
      <g id="Group_631" data-name="Group 631" transform="translate(76.392 72.387)">
        <path id="Path_1556" data-name="Path 1556" d="M115.525,220.943a10.379,10.379,0,0,1,7.674,7.522c4.609,16.432,19.15,71.723,7.219,75.543C116.39,308.5,106.427,258.79,105.379,244.1,104.505,231.858,106.419,219.132,115.525,220.943Z" transform="translate(-39.668 -219.383)" fill="#f2bc97"/>
        <path id="Path_1557" data-name="Path 1557" d="M198.808,272.278a11.081,11.081,0,0,0-7.577-6.939c-17.151-5-79.41-22.642-84.406-16.614-5.8,7,82.815,36.557,86.588,33.549C196.35,279.936,200.629,277.809,198.808,272.278Z" transform="translate(-106.553 -194.186)" fill="#f2bc97"/>
        <path id="Path_1558" data-name="Path 1558" d="M171.659,232.747s7.246,29.356,9.335,43.728,3.07,28.372-4.79,32.671-71.731-21.126-71.731-21.126l2.948-14.247,51.71,12.9s-7.738-28.619-8.843-44.34,2.621-21.13,8.107-22.11C168.711,218.377,171.659,232.747,171.659,232.747Z" transform="translate(-85.741 -220.056)" fill="#00a5ff"/>
      </g>
      <path id="Path_1559" data-name="Path 1559" d="M193.834,199.983q-.7-2.3-1.537-4.561c-2-5.412-5.3-11.232-10.944-12.405-4.516-.939-8.962,1.44-13.348,2.868a33.582,33.582,0,0,1-21.674-.369c-2.973-1.08-5.954-2.614-9.106-2.342-4.236.363-7.592,4.013-9.013,8.02a17.688,17.688,0,0,0,4.316,18.233,18.006,18.006,0,0,0,18.322,3.71c4.261-1.6,8.869-3.2,13.429-3.589,2.268-.194,4.969-.056,6.793,1.424,1.8,1.459,2.685,3.632,3.531,5.725.779,1.93,1.469,5.157,3.418,6.292,1.918,1.115,2-2.207,1.984-3.29-.025-2.188-.1-4.376-.19-6.564-.049-1.178-.546-3.951.742-4.718a1.305,1.305,0,0,1,.651-.142,6.839,6.839,0,0,1,5.227,2.94c2.934,3.871.9,9.026,1.506,13.408.418,3.018,1.939,8.952,6.074,8.47,1.959-.235,2.225-3.111,2.4-4.611.3-2.654.8-5.3.96-7.971a39.7,39.7,0,0,0-.748-8A84.167,84.167,0,0,0,193.834,199.983Z" transform="translate(-68.578 -182.804)" fill="url(#linear-gradient-5)"/>
      <g id="Group_637" data-name="Group 637" transform="translate(0 63.814)">
        <path id="Path_1560" data-name="Path 1560" d="M179.691,223.7s4.568-1.869,4.99,1.343-1.72,12.409-1.72,12.409" transform="translate(-157.772 -208.56)" fill="#f2bc97"/>
        <g id="Group_633" data-name="Group 633" transform="translate(0.367)">
          <g id="Group_632" data-name="Group 632">
            <path id="Path_1561" data-name="Path 1561" d="M177.634,218.778l14.4,31.283a1.36,1.36,0,0,0,1.415.783l13.707-1.794a1.362,1.362,0,0,0,1.055-1.935l-14.558-30.691a1.362,1.362,0,0,0-1.353-.775l-13.55,1.2A1.363,1.363,0,0,0,177.634,218.778Z" transform="translate(-177.508 -215.644)" fill="#1c2e48"/>
          </g>
        </g>
        <g id="Group_635" data-name="Group 635" transform="translate(0 0.861)">
          <g id="Group_634" data-name="Group 634">
            <path id="Path_1562" data-name="Path 1562" d="M177.823,219.221l14.4,31.283a1.364,1.364,0,0,0,1.415.781l13.709-1.792a1.365,1.365,0,0,0,1.055-1.937l-14.56-30.691a1.361,1.361,0,0,0-1.351-.773l-13.552,1.2A1.362,1.362,0,0,0,177.823,219.221Z" transform="translate(-177.697 -216.087)" fill="url(#linear-gradient-5)"/>
          </g>
        </g>
        <g id="Group_636" data-name="Group 636" transform="translate(7.488 18.335)">
          <path id="Path_1563" data-name="Path 1563" d="M183.862,229.975a3.885,3.885,0,0,1,3.167-4.491c3.626-.981,7.744-.2,8.1,2.586.523,4.059-.41,9.473-4.331,10.484C188.345,239.186,184.5,235.912,183.862,229.975Z" transform="translate(-183.83 -225.08)" fill="#f2bc97"/>
        </g>
      </g>
      <path id="Path_1564" data-name="Path 1564" d="M188.317,415.807s-5.929,7.289-19.183,16.575-16.542,7.036-16.98,10.672,53.44,2.594,53.44,2.594l1.455-29.978S188.354,415.024,188.317,415.807Z" transform="translate(-126.573 36.596)" fill="#00a5ff"/>
      <path id="Path_1565" data-name="Path 1565" d="M173.4,254.086c-.492,5.124-10.239,3.181-13.538,2.406-5.375-1.261-10.682-6.376-10.206-8.292s12.534,1.6,13.05,1.253-2.161-2.654-1.508-4.411,5.575.4,8.393,2.328S173.709,250.876,173.4,254.086Z" transform="translate(-88.059 -124.713)" fill="#f2bc97"/>
    </g>
    <g id="Group_390" data-name="Group 390" transform="translate(75.289 488.447)">
      <g id="Group_387" data-name="Group 387" transform="translate(73.398 15.715)">
        <path id="Path_1382" data-name="Path 1382" d="M323.228,448.465a96.213,96.213,0,0,1,.242,27.171,41.825,41.825,0,0,0-.324,7.626c.149,2.652.684,5.65,2.921,7.066,3.42,2.167,7.748-.953,10.17-4.191,10.561-14.094,11.188-32.71,20.188-47.6,1.387-2.29,2.909-4.556,4.481-6.831l-2.638-10.081,5.492,5.967c6.281-9.066,12.349-18.448,12.284-29.734l-8.053.684s4.241-1.74,7.986-3.2c-.307-7.6-1.27-15.45,1.4-22.605,1.942-5.187,5.717-9.339,9.282-13.645l-5.278-7.851s5.007,1.575,9.368,2.47c.334-.5.653-1.015.96-1.534,4.757-8.108,5.271-17.411,4.868-26.563a124.787,124.787,0,0,0-1.435-15.4c-1.937.108-3.584.187-3.584.187l2.852-3.92a52.744,52.744,0,0,0-2.46-8.007c-.72-1.8-3.358-8.134-5.66-8.394-6.646-.749-12.193,5.326-14.565,11.576-2.247,5.919-3.276,11.838-5.813,17.378l3.228,3.423-5.511.732c-.266.415-.542.818-.84,1.222-6.781,9.272-18.743,16.5-25.695,25.57,5.309,1.445,10.345,3.2,10.345,3.2l-14.663,4.577c-1.726,5.043-1.606,10.777,1.539,17.649,1.018,2.23,2.143,4.364,3.154,6.517l3.9-2.633-2.712,5.377a22.671,22.671,0,0,1,1.815,9.058c-.223,9.714-6.3,17.846-11.238,26.266.847,2.674,1.584,5.024,1.584,5.024l-4.128-.4a40.043,40.043,0,0,0-2.724,6.737A39.219,39.219,0,0,0,323.228,448.465Z" transform="translate(-322.628 -290.011)" fill="url(#linear-gradient-7)"/>
        <g id="Group_386" data-name="Group 386" transform="translate(11.465 18.566)">
          <path id="Path_1383" data-name="Path 1383" d="M330.511,452.566c2.167-23.34,8.562-33.565,14.2-42.585,2.7-4.323,5.257-8.408,6.845-13.391,1.8-5.648,2.009-12.6,2.23-19.96.362-12.121.737-24.653,8.206-32.754,12.738-13.811,15.28-45.787,15.285-46.089l-2.223-.036,1.111.017-1.111-.022c-.007.3-2.383,31.28-14.694,44.625-8.031,8.708-8.42,21.665-8.795,34.191-.216,7.2-.42,14-2.127,19.353-1.5,4.716-3.872,8.5-6.613,12.887-5.487,8.775-12.318,19.694-14.531,43.557Z" transform="translate(-328.3 -297.746)" fill="url(#linear-gradient-8)" style="mix-blend-mode: screen;isolation: isolate"/>
        </g>
      </g>
      <g id="Group_388" data-name="Group 388">
        <path id="Path_1384" data-name="Path 1384" d="M404.493,478.148c-4.249-2.119-7.753-4.813-9.721-7.741-6.658-9.918-5.924-23.242-7.794-34.554-2.225-13.458-8.233-26.751-18.883-35.281-8.636-6.917-14.435-14.6-16.245-25.879-1.781-11.084-.619-22.37-1.822-33.5a174.284,174.284,0,0,0-7.059-34.335c-3.012-9.491-6.2-25.344,9.539-23.194a25.418,25.418,0,0,1,16.077,9.015c10.453,12.813,9.551,30.975,17.339,45.136,3.934,7.15,10,12.464,15.782,18.091,5.187,5.052,10.664,11.1,11.756,18.547.636,4.325.127,8.794,1.133,13.05,1.407,5.938,5.516,10.573,9.248,15.194a88.355,88.355,0,0,1,9.841,15.957c7.249,14.2,14.392,32.338,10.081,48.353-1.258,4.673-3.56,9.253-7.429,12.16C427.7,485.649,413.4,482.593,404.493,478.148Z" transform="translate(-340.493 -283.463)" fill="url(#linear-gradient-9)"/>
        <path id="Path_1385" data-name="Path 1385" d="M360.111,318.587" transform="translate(-302.62 -234.282)" fill="none" stroke="#fff" stroke-linecap="round" stroke-miterlimit="10" stroke-width="1.2"/>
        <path id="Path_1386" data-name="Path 1386" d="M392.842,335a1.439,1.439,0,0,0-1.627,1.224l-4.145,29.542L360.7,313.9a1.439,1.439,0,0,0-2.566,1.306l19.284,37.924-26.837-18.8a1.44,1.44,0,0,0-1.651,2.36l30.476,21.348a1.407,1.407,0,0,0,.624.228l25.159,49.481-18.419-8.355a1.441,1.441,0,0,0-1.19,2.624l20.6,9.342a1.437,1.437,0,0,0,.9.1l4.788,9.414a1.435,1.435,0,0,0,1.935.631,1.47,1.47,0,0,0,.425-.324,1.442,1.442,0,0,0,.206-1.611L389.174,369.9a1.44,1.44,0,0,0,.326-.72l4.568-32.559A1.44,1.44,0,0,0,392.842,335Z" transform="translate(-328.782 -241.947)" fill="url(#linear-gradient-10)" style="mix-blend-mode: screen;isolation: isolate"/>
      </g>
      <path id="Path_1387" data-name="Path 1387" d="M367.045,329.719c-6.049-9.728-11.672-13.372-11.754-13.422a1.165,1.165,0,0,1-.485-.65c-6.639-5.319-24.415-20.676-15.46-26.023,8.869-5.295,15.29,16.48,17.378,24.79,1.058.7,6.44,4.58,12.2,13.811-2.182-8.912-6.4-30.255,3.608-29.153,11.219,1.234.6,26.47-1.891,32.06a87.935,87.935,0,0,1,5.967,13.11c.408,1.121.809,2.3,1.2,3.528,0-9.831,1.111-29.264,10.122-26.1,10.4,3.656-4.671,24.9-8.823,30.44a140.213,140.213,0,0,1,4.239,23.2c2.129-9.056,7.993-29.614,16.346-24.156,9.351,6.106-10.986,23.51-16.026,27.619a204.646,204.646,0,0,1,.583,21.643c3.3-8.36,12.349-28.724,19.948-21.955,8.389,7.472-14.622,21.787-20.044,24.989-.221,6.07-.679,12.541-1.433,19.447,5.78-6.593,21.523-23.179,26.431-14.128,5.194,9.575-19.56,15.182-26.712,16.583-.821,7.011-1.925,14.437-3.382,22.329,4.436-5.216,22.291-25.207,27.579-15.458,5.513,10.167-22.752,15.863-27.836,16.8q-1.426,7.575-3.272,15.693a1.179,1.179,0,0,1-1.414.886.972.972,0,0,1-.19-.062,1.177,1.177,0,0,1-.7-1.351q1.858-8.126,3.267-15.674c-5.777-.576-34.071-3.932-28.863-14.089,5.069-9.882,24.326,8.276,29.077,12.983,1.435-7.76,2.527-15.064,3.343-21.957-5.489-.54-34.242-3.872-28.995-14.1,5.086-9.915,24.456,8.4,29.12,13.029.874-7.616,1.4-14.711,1.63-21.309-6.137-.312-34.021-2.314-29.364-12.625,4.493-9.954,24.026,6.478,29.408,11.274a204.22,204.22,0,0,0-.533-22.771c-6.169.307-34.062,1.111-30.469-9.608,3.459-10.326,24.437,3.946,30.344,8.223a139.916,139.916,0,0,0-4.378-24.883C370.245,353,343,353.7,346.54,343.1c3.339-10.006,23.138,3.039,29.756,7.748-.586-1.971-1.19-3.824-1.81-5.542A84.437,84.437,0,0,0,368.408,332c-6.087.216-34.124.646-30.37-10.045C341.427,312.3,359.962,324.578,367.045,329.719Z" transform="translate(-296.605 -275.986)" fill="#1d262d"/>
      <g id="Group_389" data-name="Group 389" transform="translate(36.096 152.472)">
        <path id="Path_1388" data-name="Path 1388" d="M399.8,421.618H347.386a6.5,6.5,0,0,1-6.478-5.953l-6.685-68.678h78.74l-6.685,68.678A6.5,6.5,0,0,1,399.8,421.618Z" transform="translate(-329.43 -346.987)" fill="url(#linear-gradient-11)"/>
        <rect id="Rectangle_150" data-name="Rectangle 150" width="88.325" height="13.351" rx="1.177" transform="translate(0 0)" fill="url(#linear-gradient-12)"/>
      </g>
    </g>
  </g>
</svg>
