<svg xmlns="http://www.w3.org/2000/svg" xmlns:xlink="http://www.w3.org/1999/xlink" width="755.005" height="718.09" viewBox="0 0 755.005 718.09">
  <defs>
    <linearGradient id="linear-gradient" x1="0.5" y1="0.494" x2="0.5" y2="1.933" gradientUnits="objectBoundingBox">
      <stop offset="0.062" stop-color="#e38204"/>
      <stop offset="1" stop-color="#e35802"/>
    </linearGradient>
    <linearGradient id="linear-gradient-2" x1="0.487" y1="0.63" x2="0.514" y2="0.048" gradientUnits="objectBoundingBox">
      <stop offset="0" stop-color="#008bec"/>
      <stop offset="1" stop-color="#0077ec"/>
    </linearGradient>
    <linearGradient id="linear-gradient-3" x1="0.5" y1="0.256" x2="0.5" y2="0.954" xlink:href="#linear-gradient"/>
    <linearGradient id="linear-gradient-4" x1="0.5" y1="0.846" x2="0.5" y2="3.761" xlink:href="#linear-gradient"/>
    <linearGradient id="linear-gradient-5" x1="0" y1="0.5" x2="1" y2="0.5" xlink:href="#linear-gradient-2"/>
    <linearGradient id="linear-gradient-7" x1="0" y1="0.5" x2="1" y2="0.5" xlink:href="#linear-gradient"/>
    <linearGradient id="linear-gradient-8" x1="0" y1="0.5" x2="1" y2="0.5" xlink:href="#linear-gradient"/>
    <linearGradient id="linear-gradient-9" x1="0.331" y1="0.11" x2="0.6" y2="0.574" gradientUnits="objectBoundingBox">
      <stop offset="0" stop-color="#28c5f4"/>
      <stop offset="1" stop-color="#0077ec"/>
    </linearGradient>
    <linearGradient id="linear-gradient-10" x1="0.058" y1="0.057" x2="0.692" y2="0.694" xlink:href="#linear-gradient-2"/>
    <linearGradient id="linear-gradient-11" x1="0.803" y1="0.201" x2="0.4" y2="0.695" xlink:href="#linear-gradient-9"/>
    <linearGradient id="linear-gradient-13" x1="0" y1="0.5" x2="1" y2="0.5" xlink:href="#linear-gradient"/>
  </defs>
  <g id="Group_639" data-name="Group 639" transform="translate(-112.922 -85.998)">
    <g id="Group_364" data-name="Group 364" transform="translate(112.922 85.998)">
      <path id="Path_1333" data-name="Path 1333" d="M154.658,179.33a6.565,6.565,0,1,0,7.379-5.635A6.565,6.565,0,0,0,154.658,179.33Z" transform="translate(50.955 42.275)" fill="#00a5ff"/>
      <path id="Path_1334" data-name="Path 1334" d="M143.664,166.51a13.139,13.139,0,1,0,14.77-11.273A13.141,13.141,0,0,0,143.664,166.51Z" transform="translate(41.904 14.383)" fill="#00a5ff"/>
      <g id="Group_363" data-name="Group 363" transform="translate(0 0)">
        <g id="Group_361" data-name="Group 361">
          <circle id="Ellipse_11" data-name="Ellipse 11" cx="63.947" cy="63.947" r="63.947" transform="translate(0 79.969) rotate(-38.702)" fill="#00a5ff"/>
          <path id="Path_1566" data-name="Path 1566" d="M37.878,0A37.878,37.878,0,1,1,0,37.878,37.878,37.878,0,0,1,37.878,0Z" transform="translate(107.196 170.273) rotate(-89.211)" fill="#00a5ff"/>
        </g>
        <g id="Group_362" data-name="Group 362" transform="translate(47.795 57.597)">
          <path id="Path_1335" data-name="Path 1335" d="M188.8,161.644a19.389,19.389,0,0,0-4.512-4.932,19.948,19.948,0,0,0-23.915-.333l0,.007L122.68,126.78l-20.92-16.423a4.08,4.08,0,0,0-5.721.679L91.828,116.4l.007,0-3.691,4.7a3.423,3.423,0,0,0,.584,4.814l.478.373a3.427,3.427,0,0,0,4.814-.571l3.691-4.7,3.4,2.668-3.693,4.7A3.431,3.431,0,0,0,98,133.2l.62.486a3.427,3.427,0,0,0,4.814-.571l3.693-4.7,3.428,2.68-3.568,4.556a3.548,3.548,0,0,0,.189,4.73,3.423,3.423,0,0,0,5.086-.343l3.691-4.7,37.691,29.606A19.964,19.964,0,0,0,188.379,184.1,20.124,20.124,0,0,0,188.8,161.644Zm-9.453,21.989a5.115,5.115,0,1,1,3.575-9.13,5.034,5.034,0,0,1,1.7,2.455l.01.007a5.124,5.124,0,0,1-5.29,6.668Z" transform="translate(-87.412 -109.486)" fill="#fff"/>
          <path id="Path_1336" data-name="Path 1336" d="M150.036,153.213a19.962,19.962,0,0,1-36.222-11.57c3.22,6.575,8.281,12.374,16.187,13.6a13.971,13.971,0,0,0,11.006-2.5,5.123,5.123,0,0,0,5.29-6.668l-.01-.007c2.7-5.24,3.754-11.5,4.174-15.314A20.124,20.124,0,0,1,150.036,153.213Z" transform="translate(-49.07 -78.597)" fill="#fff"/>
        </g>
      </g>
    </g>
    <circle id="Ellipse_13" data-name="Ellipse 13" cx="167.109" cy="167.109" r="167.109" transform="matrix(0.23, -0.973, 0.973, 0.23, 195.939, 647.836)" fill="#eff4f9"/>
    <circle id="Ellipse_14" data-name="Ellipse 14" cx="127.003" cy="127.003" r="127.003" transform="translate(330.289 235.331)" fill="#eff4f9"/>
    <circle id="Ellipse_15" data-name="Ellipse 15" cx="127.003" cy="127.003" r="127.003" transform="translate(549.589 564.551) rotate(-80.69)" fill="#eff4f9"/>
    <line id="Line_5" data-name="Line 5" x1="755" transform="translate(112.927 802.998)" fill="none" stroke="#d7e3f4" stroke-miterlimit="10" stroke-width="2.181"/>
    <g id="Group_366" data-name="Group 366" transform="translate(403.966 153.319)">
      <g id="Group_365" data-name="Group 365">
        <path id="Path_1337" data-name="Path 1337" d="M302.858,113.576a21.74,21.74,0,0,0-7.217,2.03,22.385,22.385,0,0,0-12.408,23.8l0,.01-48.7,22.826-27.017,12.673a4.576,4.576,0,0,0-2.207,6.077l3.244,6.925.01,0,2.847,6.074a3.839,3.839,0,0,0,5.118,1.842l.615-.287a3.846,3.846,0,0,0,1.859-5.113l-2.847-6.074,4.392-2.057,2.845,6.074a3.848,3.848,0,0,0,5.12,1.842l.8-.375a3.847,3.847,0,0,0,1.859-5.111l-2.847-6.074,4.417-2.082,2.766,5.873a3.979,3.979,0,0,0,4.833,2.2,3.839,3.839,0,0,0,2.224-5.27l-2.847-6.074,48.7-22.823a22.4,22.4,0,0,0,36.733-25.136A22.581,22.581,0,0,0,302.858,113.576Zm17.264,20.575a5.74,5.74,0,1,1-7.345-8.193,5.664,5.664,0,0,1,3.323-.468l.01,0a5.748,5.748,0,0,1,4.012,8.666Z" transform="translate(-204.887 -113.451)" fill="#e2ebf7"/>
        <path id="Path_1338" data-name="Path 1338" d="M271.626,125.337a22.4,22.4,0,0,1-29.883,30.46c8.215.093,16.582-2.053,21.806-9.355a15.671,15.671,0,0,0,3.048-12.291,5.748,5.748,0,0,0-4.012-8.666l-.01,0c-3.894-5.346-9.628-9.566-13.242-11.913A22.581,22.581,0,0,1,271.626,125.337Z" transform="translate(-151.361 -113.451)" fill="#e2ebf7"/>
      </g>
    </g>
    <g id="Group_372" data-name="Group 372" transform="translate(652.179 226.255)">
      <g id="Group_371" data-name="Group 371" transform="translate(0)">
        <g id="Group_370" data-name="Group 370">
          <g id="Group_368" data-name="Group 368">
            <g id="Group_367" data-name="Group 367">
              <path id="Path_1339" data-name="Path 1339" d="M368.752,144.544a11.277,11.277,0,0,0-3.713-1.182,11.638,11.638,0,0,0-12.19,6.781v.007l-27.662-4.017-15.351-2.222a2.378,2.378,0,0,0-2.7,2.006l-.571,3.933h.007l-.5,3.45a1.992,1.992,0,0,0,1.695,2.263l.348.051a2,2,0,0,0,2.268-1.69l.5-3.448,2.494.36-.5,3.45a2,2,0,0,0,1.695,2.263l.454.066a2,2,0,0,0,2.268-1.687l.5-3.45,2.511.358-.478,3.34a2.065,2.065,0,0,0,1.469,2.337,1.994,1.994,0,0,0,2.472-1.653l.5-3.448,27.662,4.014a11.642,11.642,0,0,0,23.127-.407A11.732,11.732,0,0,0,368.752,144.544Zm1.611,13.865a2.987,2.987,0,1,1,.731-4.909h.005a2.988,2.988,0,0,1-.736,4.909Z" transform="translate(-306.055 -143.254)" fill="#e2ebf7"/>
            </g>
          </g>
          <g id="Group_369" data-name="Group 369" transform="translate(47.33 1.289)">
            <path id="Path_1340" data-name="Path 1340" d="M347.034,155.259a11.643,11.643,0,0,1-21.678,4.676c3.541,2.389,7.783,3.85,12.139,2.173a8.151,8.151,0,0,0,4.838-4.463,2.988,2.988,0,0,0,.736-4.909h-.005a26.889,26.889,0,0,0-2.342-8.956A11.732,11.732,0,0,1,347.034,155.259Z" transform="translate(-325.356 -143.78)" fill="#e2ebf7"/>
          </g>
        </g>
      </g>
    </g>
    <g id="Group_379" data-name="Group 379" transform="translate(387.845 205.499)">
      <rect id="Rectangle_146" data-name="Rectangle 146" width="379.359" height="342.363" rx="8.662" transform="translate(0 80.223)" fill="#d7e3f4"/>
      <g id="Group_376" data-name="Group 376" transform="translate(60.216 188.562)">
        <g id="Group_375" data-name="Group 375">
          <rect id="Rectangle_147" data-name="Rectangle 147" width="258.927" height="37.133" fill="#fff"/>
          <rect id="Rectangle_148" data-name="Rectangle 148" width="258.927" height="37.133" transform="translate(0 65.903)" fill="#fff"/>
          <rect id="Rectangle_149" data-name="Rectangle 149" width="258.927" height="37.133" transform="translate(0 137.834)" fill="#abc9f4"/>
          <g id="Group_373" data-name="Group 373" transform="translate(28.183 80.204)">
            <path id="Path_1341" data-name="Path 1341" d="M242.81,248.715a4.266,4.266,0,1,1-4.264-4.264A4.266,4.266,0,0,1,242.81,248.715Z" transform="translate(-234.279 -244.451)" fill="#1d262d"/>
            <path id="Path_1342" data-name="Path 1342" d="M260.393,248.715a4.266,4.266,0,1,1-4.267-4.264A4.267,4.267,0,0,1,260.393,248.715Z" transform="translate(-208.744 -244.451)" fill="#1d262d"/>
            <path id="Path_1343" data-name="Path 1343" d="M277.974,248.715a4.265,4.265,0,1,1-4.265-4.264A4.265,4.265,0,0,1,277.974,248.715Z" transform="translate(-183.209 -244.451)" fill="#1d262d"/>
            <path id="Path_1344" data-name="Path 1344" d="M251.6,248.715a4.264,4.264,0,1,1-4.264-4.264A4.265,4.265,0,0,1,251.6,248.715Z" transform="translate(-221.511 -244.451)" fill="#1d262d"/>
            <path id="Path_1345" data-name="Path 1345" d="M269.183,248.715a4.265,4.265,0,1,1-4.264-4.264A4.266,4.266,0,0,1,269.183,248.715Z" transform="translate(-195.975 -244.451)" fill="#1d262d"/>
            <path id="Path_1346" data-name="Path 1346" d="M304.348,248.715a4.264,4.264,0,1,1-4.264-4.264A4.265,4.265,0,0,1,304.348,248.715Z" transform="translate(-144.906 -244.451)" fill="#1d262d"/>
            <path id="Path_1347" data-name="Path 1347" d="M286.767,248.715a4.266,4.266,0,1,1-4.267-4.264A4.267,4.267,0,0,1,286.767,248.715Z" transform="translate(-170.442 -244.451)" fill="#1d262d"/>
            <path id="Path_1348" data-name="Path 1348" d="M295.557,248.715a4.264,4.264,0,1,1-4.264-4.264A4.266,4.266,0,0,1,295.557,248.715Z" transform="translate(-157.673 -244.451)" fill="#1d262d"/>
            <path id="Path_1349" data-name="Path 1349" d="M321.932,248.715a4.266,4.266,0,1,1-4.265-4.264A4.266,4.266,0,0,1,321.932,248.715Z" transform="translate(-119.373 -244.451)" fill="#1d262d"/>
            <path id="Path_1350" data-name="Path 1350" d="M313.141,248.715a4.266,4.266,0,1,1-4.264-4.264A4.266,4.266,0,0,1,313.141,248.715Z" transform="translate(-132.14 -244.451)" fill="#1d262d"/>
          </g>
          <g id="Group_374" data-name="Group 374" transform="translate(71.301 16.308)">
            <path id="Path_1351" data-name="Path 1351" d="M260.393,222.662a4.266,4.266,0,1,1-4.267-4.267A4.266,4.266,0,0,1,260.393,222.662Z" transform="translate(-251.862 -218.395)" fill="#1d262d"/>
            <path id="Path_1352" data-name="Path 1352" d="M277.974,222.662a4.265,4.265,0,1,1-4.265-4.267A4.264,4.264,0,0,1,277.974,222.662Z" transform="translate(-226.327 -218.395)" fill="#1d262d"/>
            <path id="Path_1353" data-name="Path 1353" d="M269.183,222.662a4.265,4.265,0,1,1-4.264-4.267A4.266,4.266,0,0,1,269.183,222.662Z" transform="translate(-239.094 -218.395)" fill="#1d262d"/>
            <path id="Path_1354" data-name="Path 1354" d="M304.348,222.662a4.264,4.264,0,1,1-4.264-4.267A4.264,4.264,0,0,1,304.348,222.662Z" transform="translate(-188.025 -218.395)" fill="#1d262d"/>
            <path id="Path_1355" data-name="Path 1355" d="M286.767,222.662A4.266,4.266,0,1,1,282.5,218.4,4.266,4.266,0,0,1,286.767,222.662Z" transform="translate(-213.56 -218.395)" fill="#1d262d"/>
            <path id="Path_1356" data-name="Path 1356" d="M295.557,222.662a4.264,4.264,0,1,1-4.264-4.267A4.266,4.266,0,0,1,295.557,222.662Z" transform="translate(-200.791 -218.395)" fill="#1d262d"/>
          </g>
        </g>
      </g>
      <g id="Group_378" data-name="Group 378" transform="translate(103.761 0)">
        <circle id="Ellipse_16" data-name="Ellipse 16" cx="61.051" cy="61.051" r="61.051" transform="matrix(0.634, -0.773, 0.773, 0.634, 0, 94.426)" fill="#00a5ff"/>
        <g id="Group_377" data-name="Group 377" transform="translate(62.52 62.52)">
          <line id="Line_6" data-name="Line 6" x1="46.797" y2="46.797" fill="none" stroke="#fff" stroke-miterlimit="10" stroke-width="2.273"/>
          <line id="Line_7" data-name="Line 7" x1="46.797" y1="46.797" fill="none" stroke="#fff" stroke-miterlimit="10" stroke-width="2.273"/>
        </g>
      </g>
    </g>
    <g id="Group_385" data-name="Group 385" transform="translate(243.672 327.071)">
      <path id="Path_1357" data-name="Path 1357" d="M154.515,358.485l63.256-2.629,2.771-108.221-7.859-21.916-26.2-9.022-18.34-3.391a22.076,22.076,0,0,0-17.926,22.458l6.859,76.592Z" transform="translate(-124.099 -142.931)" fill="#f7d6b2"/>
      <path id="Path_1358" data-name="Path 1358" d="M162.313,206.406v21.747s4.6,2.744,15.349,2.744c5.8,0,7.1,1,7.1,1V220.114Z" transform="translate(-106.508 -152.951)" fill="#f7d6b2"/>
      <path id="Path_1359" data-name="Path 1359" d="M161.319,218.731c.049.787.076,1.525.128,2.236,0,.255-.027.508-.027.787-.532,12.909,7.752,26.732,20.226,28.613,0,0,.1.025.28.052.1,0,.255.025.432.025,2.668.331,12.325,1.118,15.856-2.769,4.142-4.576,7.825-12.958,7.825-18.689S205,221.9,205,219.592c0-1.8.969-7.45.988-9.9.081-11.521-7.671-22.953-21.443-22.953C163.884,186.739,160.732,204.859,161.319,218.731Z" transform="translate(-108.045 -181.513)" fill="#f7d6b2"/>
      <path id="Path_1360" data-name="Path 1360" d="M171.463,214.973" transform="translate(-93.22 -140.51)" fill="#6ebaad"/>
      <g id="Group_381" data-name="Group 381" transform="translate(0 74.244)">
        <path id="Path_1361" data-name="Path 1361" d="M142.65,301.869c6.783,2.82,26.823-35.062,34.133-51.772s10.086-31.183,1.8-34.628S162,224.2,155.3,241.161,135.867,299.047,142.65,301.869Z" transform="translate(-137.87 -214.884)" fill="#f7d6b2"/>
        <g id="Group_380" data-name="Group 380" transform="translate(0 73.071)">
          <path id="Path_1362" data-name="Path 1362" d="M146.909,333.968c6.513.1,9.061-47.8,9.277-61.336s-.559-27.836-7.862-27.951-8.529,14.155-8.742,27.689S140.4,333.866,146.909,333.968Z" transform="translate(-139.557 -244.681)" fill="#f7d6b2"/>
          <path id="Path_1363" data-name="Path 1363" d="M147.017,276.048c-7.666-.689-7.349,12.968-7.072,17.622.454,7.58,8.3,14.974,11.249,14.841s.628-17.22,1.273-17.828,1,8.671,3.75,8.257,1.78-11.668-.314-15.977S151.821,276.482,147.017,276.048Z" transform="translate(-139.149 -199.164)" fill="#f7d6b2"/>
        </g>
      </g>
      <path id="Path_1364" data-name="Path 1364" d="M186.726,229.792c-1.16,5.719-4.723,13.674-9.51,22.46-5.263,9.635-10.008,17.9-13.1,23.225-1.905,3.274-3.19,5.41-3.585,6.072-.081.145-.123.228-.123.228l-18.3-7.479s10.856-45.171,27.848-59.053a16.845,16.845,0,0,1,2.259-.974C181.817,216.1,188.737,219.907,186.726,229.792Z" transform="translate(-135.838 -141.528)" fill="url(#linear-gradient)"/>
      <path id="Path_1365" data-name="Path 1365" d="M172.839,271.2c-6.3,2.388-9.816,12.4-7.685,21.705a138.628,138.628,0,0,0,9.929,28.039c13.1,27.77,23.235,64.9,32.527,64.767s12.372-23.164,3.266-53.165c-8.227-27.115-15.766-62.675-22.607-64.441C184.8,267.208,178.359,269.107,172.839,271.2Z" transform="translate(-103.29 -63.68)" fill="#f7d6b2"/>
      <g id="Group_382" data-name="Group 382" transform="translate(91.965 315.753)">
        <path id="Path_1366" data-name="Path 1366" d="M192.475,313.719c-25.244-7.73-13.818,114.4-5.346,136.1s11.656-36.183,13.181-73.622S202.406,316.762,192.475,313.719Z" transform="translate(-177.059 -313.368)" fill="#f7d6b2"/>
      </g>
      <path id="Path_1367" data-name="Path 1367" d="M178.487,357.932c.287.383,2.106,33.706,2.106,33.706s16.087,1.15,16.087,0,1.246-30.067,1.246-30.067Z" transform="translate(-83.019 67.105)" fill="#f7d6b2"/>
      <path id="Path_1368" data-name="Path 1368" d="M155.318,357.932c.287.383,2.107,33.706,2.107,33.706s16.087,1.15,16.087,0,1.246-30.067,1.246-30.067Z" transform="translate(-116.667 67.105)" fill="#f7d6b2"/>
      <path id="Path_1369" data-name="Path 1369" d="M162.359,269.637c-6.651,1.121-12.033,10.26-11.746,19.8a138.432,138.432,0,0,0,4.306,29.432c7.47,29.78,10.216,68.171,19.358,69.841s16.624-20.327,13.507-51.522c-2.818-28.2-3.32-64.544-9.689-67.6C174.868,268.04,168.176,268.653,162.359,269.637Z" transform="translate(-123.517 -62.56)" fill="#f7d6b2"/>
      <g id="Group_383" data-name="Group 383" transform="translate(36.884 318.249)">
        <path id="Path_1370" data-name="Path 1370" d="M171.971,314.856c-24.824-8.99-17.894,113.606-10.523,135.7s11.8-35.592,15.206-72.906S181.736,318.392,171.971,314.856Z" transform="translate(-154.598 -314.385)" fill="#f7d6b2"/>
      </g>
      <path id="Path_1371" data-name="Path 1371" d="M224.687,279.092s22.458,94.577,21.948,114.494-4.328,124.043-4.328,124.043-17.919.078-17.933,0c-13.826-75.177-8.112-119.926-9.645-128.352s-18.385-44.433-18.385-44.433-.768,41.367-.768,52.859-10.341,119.161-10.341,119.161l-18.544.383s-5.971-73.578-5.971-88.517,3.639-38.3,3.448-41.367-29.111-78.139-9.959-107.25C179.391,241.834,224.687,279.092,224.687,279.092Z" transform="translate(-127.792 -71.007)" fill="url(#linear-gradient-2)"/>
      <path id="Path_1372" data-name="Path 1372" d="M230.847,247.991a20.718,20.718,0,0,1-.434,4.765c-.186.893-.414,1.927-.768,3.193-.954,3.6-2.653,8.993-5.657,18.066-8.122,24.493-.89,77.349-.787,77.867,0,0-73.72,1.783-73.556-.353,1.182-14.564,12.433-27.514,2.84-78.715-7.874-42.1,2.59-58.119,11.83-59.217,18.213-2.175,50.35,8.683,54.742,12.764S230.7,238.915,230.847,247.991Z" transform="translate(-124.906 -142.924)" fill="url(#linear-gradient-3)"/>
      <path id="Path_1373" data-name="Path 1373" d="M264.165,221.478c-.993-7.217-43.449-5.341-61.41-3.208s-31.73,7.026-30.518,15.837,15.79,9.809,33.66,7.021S265.156,228.7,264.165,221.478Z" transform="translate(-92.204 -138.51)" fill="#eed7ba"/>
      <path id="Path_1374" data-name="Path 1374" d="M233.964,236.706s-19.5,7.5-34.56,11.646c-9.218,2.536-17.487,1.574-19.312-3.9-.042-.145-.289-.1-.434-.164-9.387-3.688-12.337-19.375-3.117-23.458,5.326-2.361,16.7-2.038,26.612-2.773,19.3-1.435,26.293-1.7,26.293-1.7l4.269,19.209Z" transform="translate(-93.98 -138.497)" fill="url(#linear-gradient-4)"/>
      <path id="Path_1375" data-name="Path 1375" d="M232.887,205.639a22.588,22.588,0,0,1-3.308,10.091c-6.415,11.018-10.091,21.406-9.907,34.349.218,15.5,9.522,33.984-.091,48.329-14,20.893-49.96,19.4-65.61,1.954-10.461-11.663-12.867-30.541-.591-42.047,5.3-4.968,10.26-9.711,13.321-16.386,8.541-18.625,7.506-48.552,31.239-56.147C211.209,181.535,233.819,188.953,232.887,205.639Z" transform="translate(-131.49 -184.608)" fill="#1d262d"/>
      <path id="Path_1376" data-name="Path 1376" d="M196.318,370.62s1.7,4.927,11.947,11.337,12.938,5.015,13.169,7.413-42.611.424-42.611.424l.669-19.721S196.314,370.107,196.318,370.62Z" transform="translate(-82.53 84.737)" fill="url(#linear-gradient-5)"/>
      <path id="Path_1377" data-name="Path 1377" d="M172.769,370.076s1.945,4.14,8.848,10.824c6.1,5.905,11.486,4.642,10.994,6.754-.473,2.028-36.693.714-36.693.714V370.076Z" transform="translate(-115.797 84.741)" fill="url(#linear-gradient-5)"/>
      <g id="Group_384" data-name="Group 384" transform="translate(93.412 8.924)">
        <path id="Path_1378" data-name="Path 1378" d="M184.27,193.829c-4.623,4.512,27.318,39.766,36.693,49.371s19.984,19.049,25.165,13.99S242.122,241.3,232.747,231.7,188.893,189.317,184.27,193.829Z" transform="translate(-168.693 -180.757)" fill="#eed7ba"/>
        <path id="Path_1379" data-name="Path 1379" d="M177.873,189.012c-1.8,1.79,7.737,10.51,10.231,13.348.378.429.6.731.593.846s-.167.118-.4.051c-1.471-.4-6.727-3.759-8.227-1.913-1.65,2.03,5.611,8.907,10.133,11.128.25.123.525.289.758.383,4.412,1.761,7.318,2.03,11.131-.858,6.084-4.61-3.264-14.414-6.572-17.644a23.8,23.8,0,0,0-10.417-5.491C181.774,188.021,178.873,188.016,177.873,189.012Z" transform="translate(-177.649 -188.247)" fill="#eed7ba"/>
      </g>
      <path id="Path_1380" data-name="Path 1380" d="M153.3,246.971l-.083.186c-1.905,3.274-3.19,5.41-3.585,6.072l1.95-19.456A101.265,101.265,0,0,0,153.3,246.971Z" transform="translate(-124.93 -113.207)" opacity="0.5" fill="url(#linear-gradient-7)" style="mix-blend-mode: multiply;isolation: isolate"/>
      <path id="Path_1381" data-name="Path 1381" d="M191.274,229.4c-.186.893-.414,1.928-.768,3.193-4.62,2.776-13.912.628-13.912.628l14.6-3.8S191.21,229.4,191.274,229.4Z" transform="translate(-85.767 -119.564)" opacity="0.5" fill="url(#linear-gradient-8)" style="mix-blend-mode: multiply;isolation: isolate"/>
    </g>
    <g id="Group_390" data-name="Group 390" transform="translate(692.9 569.491)">
      <g id="Group_387" data-name="Group 387" transform="translate(0 16.056)">
        <path id="Path_1382" data-name="Path 1382" d="M397.682,451.9a98.3,98.3,0,0,0-.248,27.76,42.731,42.731,0,0,1,.331,7.791c-.152,2.71-.7,5.773-2.984,7.219-3.494,2.214-7.916-.974-10.39-4.282-10.79-14.4-11.43-33.419-20.626-48.628-1.417-2.339-2.972-4.654-4.578-6.979l2.7-10.3-5.611,6.1c-6.418-9.262-12.617-18.848-12.551-30.379l8.227.7s-4.333-1.778-8.159-3.274c.314-7.766,1.3-15.785-1.432-23.1-1.984-5.3-5.841-9.542-9.483-13.941l5.392-8.021s-5.115,1.609-9.571,2.523c-.341-.513-.667-1.037-.981-1.567-4.86-8.284-5.385-17.789-4.973-27.139a127.506,127.506,0,0,1,1.466-15.739c1.979.11,3.661.191,3.661.191l-2.913-4a53.889,53.889,0,0,1,2.514-8.181c.736-1.842,3.431-8.311,5.782-8.576,6.79-.765,12.458,5.442,14.88,11.827,2.3,6.047,3.347,12.095,5.939,17.754l-3.3,3.5,5.63.748c.272.424.554.836.858,1.248,6.928,9.473,19.15,16.854,26.251,26.124-5.424,1.476-10.569,3.274-10.569,3.274l14.981,4.676c1.763,5.152,1.641,11.011-1.572,18.032-1.04,2.278-2.19,4.458-3.222,6.658l-3.98-2.69,2.771,5.493a23.163,23.163,0,0,0-1.854,9.255c.228,9.924,6.435,18.233,11.482,26.835-.866,2.732-1.619,5.133-1.619,5.133l4.218-.412a40.91,40.91,0,0,1,2.783,6.883A40.068,40.068,0,0,1,397.682,451.9Z" transform="translate(-322.628 -290.011)" fill="url(#linear-gradient-9)"/>
        <g id="Group_386" data-name="Group 386" transform="translate(13.909 18.969)">
          <path id="Path_1383" data-name="Path 1383" d="M376.085,455.922c-2.214-23.846-8.747-34.292-14.513-43.508-2.761-4.417-5.37-8.59-6.994-13.681-1.839-5.77-2.052-12.874-2.278-20.393-.37-12.384-.753-25.187-8.384-33.464C330.9,330.766,328.3,298.1,328.3,297.788l2.271-.037-1.135.017,1.135-.022c.007.3,2.435,31.958,15.013,45.593,8.205,8.9,8.6,22.134,8.985,34.933.221,7.357.429,14.3,2.173,19.773,1.535,4.819,3.956,8.688,6.756,13.166,5.606,8.965,12.585,20.121,14.846,44.5Z" transform="translate(-328.3 -297.746)" fill="url(#linear-gradient-10)" style="mix-blend-mode: screen;isolation: isolate"/>
        </g>
      </g>
      <g id="Group_388" data-name="Group 388" transform="translate(43.809)">
        <path id="Path_1384" data-name="Path 1384" d="M381.951,482.368c4.341-2.165,7.921-4.917,9.932-7.909,6.8-10.133,6.052-23.745,7.962-35.3,2.273-13.75,8.411-27.33,19.292-36.046,8.823-7.067,14.748-14.92,16.6-26.44,1.82-11.325.633-22.855,1.861-34.229a178.061,178.061,0,0,1,7.212-35.08c3.078-9.7,6.334-25.894-9.745-23.7a25.969,25.969,0,0,0-16.425,9.211c-10.68,13.09-9.758,31.647-17.715,46.115C396.9,346.3,390.7,351.726,384.8,357.474c-5.3,5.162-10.9,11.344-12.011,18.949-.65,4.419-.13,8.985-1.157,13.333-1.437,6.067-5.635,10.8-9.449,15.523a90.268,90.268,0,0,0-10.054,16.3c-7.406,14.51-14.7,33.039-10.3,49.4,1.285,4.775,3.637,9.453,7.59,12.423C358.242,490.032,372.848,486.91,381.951,482.368Z" transform="translate(-340.493 -283.463)" fill="url(#linear-gradient-11)"/>
        <path id="Path_1385" data-name="Path 1385" d="M360.111,318.587" transform="translate(-312.003 -232.455)" fill="none" stroke="#fff" stroke-linecap="round" stroke-miterlimit="10" stroke-width="1.2"/>
        <path id="Path_1386" data-name="Path 1386" d="M370.529,335.47a1.47,1.47,0,0,1,1.663,1.251l4.235,30.183,26.941-52.986a1.471,1.471,0,0,1,2.621,1.334L386.287,354l27.419-19.206a1.471,1.471,0,0,1,1.687,2.411l-31.137,21.81a1.438,1.438,0,0,1-.637.233l-25.7,50.554,18.819-8.536a1.472,1.472,0,0,1,1.216,2.68L356.9,413.487a1.468,1.468,0,0,1-.915.1L351.1,423.2a1.466,1.466,0,0,1-1.977.645,1.5,1.5,0,0,1-.434-.331,1.474,1.474,0,0,1-.211-1.646l25.8-50.74a1.471,1.471,0,0,1-.333-.736l-4.667-33.265A1.471,1.471,0,0,1,370.529,335.47Z" transform="translate(-329.132 -240.404)" fill="url(#linear-gradient-5)" style="mix-blend-mode: screen;isolation: isolate"/>
      </g>
      <path id="Path_1387" data-name="Path 1387" d="M380.624,330.606c6.18-9.939,11.925-13.662,12.009-13.713a1.19,1.19,0,0,0,.5-.665c6.783-5.434,24.944-21.124,15.8-26.587-9.061-5.41-15.621,16.837-17.754,25.327-1.081.716-6.579,4.679-12.467,14.11,2.229-9.105,6.535-30.911-3.686-29.785-11.462,1.261-.618,27.044,1.932,32.755a89.842,89.842,0,0,0-6.1,13.394c-.417,1.145-.826,2.354-1.229,3.6,0-10.045-1.135-29.9-10.341-26.663-10.628,3.735,4.772,25.442,9.015,31.1a143.25,143.25,0,0,0-4.331,23.7c-2.175-9.252-8.166-30.256-16.7-24.68-9.554,6.239,11.224,24.02,16.374,28.218a209.081,209.081,0,0,0-.6,22.112c-3.369-8.541-12.617-29.346-20.381-22.431-8.571,7.634,14.939,22.259,20.479,25.531.226,6.2.694,12.813,1.464,19.868-5.9-6.736-21.989-23.682-27-14.434-5.307,9.782,19.984,15.511,27.291,16.943.839,7.163,1.967,14.75,3.455,22.814-4.532-5.329-22.774-25.754-28.177-15.793-5.633,10.388,23.245,16.207,28.439,17.161q1.457,7.739,3.342,16.033a1.2,1.2,0,0,0,1.444.9,1,1,0,0,0,.194-.064,1.2,1.2,0,0,0,.711-1.381q-1.9-8.3-3.338-16.013c5.9-.589,34.81-4.017,29.489-14.395-5.179-10.1-24.854,8.455-29.707,13.264-1.466-7.928-2.582-15.39-3.416-22.433,5.608-.552,34.984-3.956,29.623-14.407-5.2-10.13-24.986,8.58-29.751,13.311-.893-7.781-1.427-15.03-1.665-21.771,6.27-.319,34.758-2.364,30-12.9-4.591-10.17-24.547,6.619-30.045,11.518a208.636,208.636,0,0,1,.544-23.265c6.3.314,34.8,1.135,31.129-9.816-3.534-10.55-24.966,4.032-31,8.4a142.946,142.946,0,0,1,4.473-25.423c6.717.329,34.548,1.052,30.935-9.782-3.411-10.223-23.64,3.1-30.4,7.916.6-2.013,1.216-3.906,1.849-5.662a86.27,86.27,0,0,1,6.209-13.6c6.219.221,34.864.66,31.029-10.263C406.8,312.812,387.861,325.353,380.624,330.606Z" transform="translate(-301.937 -275.708)" fill="#1d262d"/>
      <g id="Group_389" data-name="Group 389" transform="translate(23.537 155.777)">
        <path id="Path_1388" data-name="Path 1388" d="M347.671,423.235h53.55a6.642,6.642,0,0,0,6.619-6.082l6.83-70.167H334.223l6.83,70.167A6.642,6.642,0,0,0,347.671,423.235Z" transform="translate(-329.326 -346.987)" fill="url(#linear-gradient-13)"/>
        <rect id="Rectangle_150" data-name="Rectangle 150" width="90.24" height="13.641" rx="1.177" transform="translate(90.24 13.641) rotate(180)" fill="url(#linear-gradient-13)"/>
      </g>
    </g>
  </g>
</svg>
