<svg xmlns="http://www.w3.org/2000/svg" xmlns:xlink="http://www.w3.org/1999/xlink" width="755" height="718.09" viewBox="0 0 755 718.09">
  <defs>
    <linearGradient id="linear-gradient" x1="0.5" y1="0.158" x2="0.5" y2="0.87" gradientUnits="objectBoundingBox">
      <stop offset="0.062" stop-color="#e38204"/>
      <stop offset="1" stop-color="#e35802"/>
    </linearGradient>
    <linearGradient id="linear-gradient-2" x1="0" y1="0.5" x2="1" y2="0.5" xlink:href="#linear-gradient"/>
    <linearGradient id="linear-gradient-3" x1="0.164" y1="0.27" x2="0.817" y2="0.822" gradientUnits="objectBoundingBox">
      <stop offset="0" stop-color="#00a9f4"/>
      <stop offset="1" stop-color="#0077ec"/>
    </linearGradient>
    <linearGradient id="linear-gradient-4" x1="0" y1="0.5" x2="1" y2="0.5" xlink:href="#linear-gradient-3"/>
    <linearGradient id="linear-gradient-5" x1="0.738" y1="0.597" x2="2.128" y2="1.863" xlink:href="#linear-gradient-3"/>
    <linearGradient id="linear-gradient-6" x1="-0.187" y1="-0.448" x2="1.011" y2="1.136" xlink:href="#linear-gradient-3"/>
    <linearGradient id="linear-gradient-7" x1="0" y1="0.5" x2="1" y2="0.5" xlink:href="#linear-gradient-3"/>
    <linearGradient id="linear-gradient-8" x1="0.331" y1="0.11" x2="0.6" y2="0.574" gradientUnits="objectBoundingBox">
      <stop offset="0" stop-color="#28c5f4"/>
      <stop offset="1" stop-color="#0077ec"/>
    </linearGradient>
    <linearGradient id="linear-gradient-9" x1="0.058" y1="0.057" x2="0.692" y2="0.694" gradientUnits="objectBoundingBox">
      <stop offset="0" stop-color="#008bec"/>
      <stop offset="1" stop-color="#0077ec"/>
    </linearGradient>
    <linearGradient id="linear-gradient-10" x1="0.803" y1="0.201" x2="0.4" y2="0.695" xlink:href="#linear-gradient-8"/>
    <linearGradient id="linear-gradient-11" x1="0" y1="0.5" x2="1" y2="0.5" xlink:href="#linear-gradient-9"/>
  </defs>
  <g id="Image" transform="translate(-104.428 -67.482)">
    <g id="Group_641" data-name="Group 641">
      <g id="Group_341" data-name="Group 341" transform="translate(104.431 67.482)">
        <g id="Group_327" data-name="Group 327" transform="translate(566.018 24.947)" opacity="0.4">
          <path id="Path_825" data-name="Path 825" d="M541.012,341.688a1.968,1.968,0,0,0,.3.089,2.117,2.117,0,0,0,2.541-1.592C574.979,204.158,691.471,133.071,692.643,132.37a2.119,2.119,0,1,0-2.178-3.636c-1.189.707-119.221,72.733-150.752,210.5A2.12,2.12,0,0,0,541.012,341.688Z" transform="translate(-539.659 -93.836)" fill="#007fec"/>
          <path id="Path_826" data-name="Path 826" d="M558.875,168.835s28.533-6.209,51.154,3.7a84.236,84.236,0,0,1,37.655,32.948s-32.965,5.5-53.819-3.617S558.875,168.835,558.875,168.835Z" transform="translate(-507.199 -28.826)" fill="#007fec"/>
          <path id="Path_827" data-name="Path 827" d="M572.555,150.551s23.291-5.013,41.683,2.625a66.284,66.284,0,0,1,30.523,25.58s-26.9,4.48-43.856-2.547S572.555,150.551,572.555,150.551Z" transform="translate(-484.091 -59.196)" fill="#007fec"/>
          <path id="Path_828" data-name="Path 828" d="M571.93,121.5s15.985,15.893,19.142,34.374a61.863,61.863,0,0,1-5.3,37.273s-17.4-19.026-20.317-36.054S571.93,121.5,571.93,121.5Z" transform="translate(-497.033 -105.547)" fill="#007fec"/>
          <path id="Path_829" data-name="Path 829" d="M583.958,143.779s15.692-9.106,30.759-7.664a50.25,50.25,0,0,1,27.989,12s-18.429,9.541-32.316,8.224S583.958,143.779,583.958,143.779Z" transform="translate(-464.828 -81.115)" fill="#007fec"/>
          <path id="Path_830" data-name="Path 830" d="M588.566,115.566s10.743,14.619,10.932,29.756a50.267,50.267,0,0,1-8.917,29.119s-11.472-17.3-11.655-31.243S588.566,115.566,588.566,115.566Z" transform="translate(-473.335 -115.566)" fill="#007fec"/>
          <path id="Path_831" data-name="Path 831" d="M594.519,145.923s5.516-12.182,16.06-18.354a48.236,48.236,0,0,1,24.391-6.408S627.9,134.849,618.19,140.54,594.519,145.923,594.519,145.923Z" transform="translate(-446.989 -106.142)" fill="#007fec"/>
        </g>
        <path id="Path_832" data-name="Path 832" d="M550.843,117.985C789.465,101.912,828.455,380.97,957.858,439.526c132.934,60.158,128.05,195.013-34.467,268.333-158.219,71.378-327.323,50.187-421.944,5.567-156.43-73.769-243.506-286.4-139.286-345.035C456.22,315.469,393.239,128.6,550.843,117.985Z" transform="translate(-305.866 -107.66)" fill="#e3ecfd"/>
        <path id="Path_833" data-name="Path 833" d="M708.3,766.971c-79.845,0-152.734-16.64-206.168-41.837C387.5,671.075,315.842,550.964,312.791,466.072c-1.6-44.463,14.663-77.585,47.023-95.794,39.681-22.328,51.456-67.666,63.923-115.664,17.093-65.8,34.764-133.836,129.347-140.209l.1,1.425-.1-1.425C706.2,104.111,779.752,212.889,844.651,308.876,883.5,366.334,920.194,420.6,969.375,442.862c61.6,27.874,96.909,72.723,96.879,123.04-.035,59.736-48.175,115.7-132.074,153.557C859.466,753.166,781,766.965,708.3,766.971ZM572.912,116.584c-6.4,0-12.933.219-19.636.671-92.529,6.231-109.938,73.258-126.775,138.075-12.069,46.466-24.55,94.513-65.29,117.435-31.368,17.653-47.127,49.879-45.568,93.205,3.019,84.035,74.057,202.986,187.706,256.58,101.492,47.86,273.7,64.66,429.656-5.7,82.832-37.368,130.357-92.39,130.392-150.952.027-49.149-34.67-93.048-95.2-120.441-49.916-22.587-86.829-77.184-125.911-134.986C780.669,219.345,711.179,116.584,572.912,116.584Z" transform="translate(-312.684 -113.726)" fill="#bed6ff"/>
        <path id="Path_834" data-name="Path 834" d="M371.845,275.033a17.372,17.372,0,1,1-17.364-17.378A17.372,17.372,0,0,1,371.845,275.033Z" transform="translate(-271.439 127.137)" fill="#fff"/>
        <g id="Group_337" data-name="Group 337" transform="translate(230.367 10.657) rotate(45)" opacity="0.6">
          <path id="Path_860" data-name="Path 860" d="M11.012,0l6.365,6.145a30.278,30.278,0,0,0-.086,42.043l-6.363,6.145A39.121,39.121,0,0,1,11.012,0Z" transform="translate(60.118 39.986)" fill="#0085ec"/>
          <path id="Path_861" data-name="Path 861" d="M18.537,0,25,6.04a60.1,60.1,0,0,0,.637,82.669l-6.387,6.131A68.961,68.961,0,0,1,18.537,0Z" transform="translate(30.291 20.158)" fill="#0085ec"/>
          <path id="Path_862" data-name="Path 862" d="M26.212,0l6.511,5.992a90.376,90.376,0,0,0,1.371,123.857l-6.373,6.134A99.221,99.221,0,0,1,26.212,0Z" transform="translate(0 0)" fill="#0085ec"/>
        </g>
      </g>
      <line id="Line_5" data-name="Line 5" x1="755" transform="translate(104.428 784.482)" fill="none" stroke="#d7e3f4" stroke-miterlimit="10" stroke-width="2.181"/>
      <g id="Group_379" data-name="Group 379" transform="translate(358.724 139.184)">
        <rect id="Rectangle_146" data-name="Rectangle 146" width="371.31" height="335.099" rx="8.662" transform="translate(0 54.112)" fill="#d7e3f4"/>
        <g id="Group_376" data-name="Group 376" transform="translate(58.938 160.65)">
          <rect id="Rectangle_149" data-name="Rectangle 149" width="253.434" height="36.345" transform="translate(0 134.413)" fill="#abc9f4"/>
          <g id="Group_394" data-name="Group 394" transform="translate(0 64.008)">
            <rect id="Rectangle_148" data-name="Rectangle 148" width="253.434" height="36.345" fill="#fff"/>
            <g id="Group_373" data-name="Group 373" transform="translate(27.585 13.998)">
              <path id="Path_1341" data-name="Path 1341" d="M242.629,248.625a4.175,4.175,0,1,1-4.174-4.174A4.176,4.176,0,0,1,242.629,248.625Z" transform="translate(-234.279 -244.451)" fill="#1d262d"/>
              <path id="Path_1342" data-name="Path 1342" d="M260.212,248.625a4.175,4.175,0,1,1-4.176-4.174A4.176,4.176,0,0,1,260.212,248.625Z" transform="translate(-209.659 -244.451)" fill="#1d262d"/>
              <path id="Path_1343" data-name="Path 1343" d="M277.793,248.625a4.174,4.174,0,1,1-4.174-4.174A4.174,4.174,0,0,1,277.793,248.625Z" transform="translate(-185.038 -244.451)" fill="#1d262d"/>
              <path id="Path_1344" data-name="Path 1344" d="M251.419,248.625a4.174,4.174,0,1,1-4.174-4.174A4.174,4.174,0,0,1,251.419,248.625Z" transform="translate(-221.968 -244.451)" fill="#1d262d"/>
              <path id="Path_1345" data-name="Path 1345" d="M269,248.625a4.174,4.174,0,1,1-4.174-4.174A4.176,4.176,0,0,1,269,248.625Z" transform="translate(-197.348 -244.451)" fill="#1d262d"/>
              <path id="Path_1346" data-name="Path 1346" d="M304.167,248.625a4.174,4.174,0,1,1-4.174-4.174A4.174,4.174,0,0,1,304.167,248.625Z" transform="translate(-148.108 -244.451)" fill="#1d262d"/>
              <path id="Path_1347" data-name="Path 1347" d="M286.586,248.625a4.175,4.175,0,1,1-4.176-4.174A4.176,4.176,0,0,1,286.586,248.625Z" transform="translate(-172.729 -244.451)" fill="#1d262d"/>
              <path id="Path_1348" data-name="Path 1348" d="M295.376,248.625a4.174,4.174,0,1,1-4.174-4.174A4.176,4.176,0,0,1,295.376,248.625Z" transform="translate(-160.418 -244.451)" fill="#1d262d"/>
              <path id="Path_1349" data-name="Path 1349" d="M321.751,248.625a4.175,4.175,0,1,1-4.174-4.174A4.176,4.176,0,0,1,321.751,248.625Z" transform="translate(-123.489 -244.451)" fill="#1d262d"/>
              <path id="Path_1350" data-name="Path 1350" d="M312.96,248.625a4.175,4.175,0,1,1-4.174-4.174A4.176,4.176,0,0,1,312.96,248.625Z" transform="translate(-135.799 -244.451)" fill="#1d262d"/>
            </g>
          </g>
          <g id="Group_393" data-name="Group 393" transform="translate(0.055 0)">
            <rect id="Rectangle_147" data-name="Rectangle 147" width="253.434" height="36.345" fill="#fff"/>
            <rect id="Rectangle_152" data-name="Rectangle 152" width="157.584" height="7.83" transform="translate(47.96 14.682)" fill="#1d262d"/>
          </g>
        </g>
        <g id="Group_378" data-name="Group 378" transform="translate(125.421 0)">
          <circle id="Ellipse_16" data-name="Ellipse 16" cx="59.755" cy="59.755" r="59.755" fill="#00a5ff"/>
          <g id="Group_377" data-name="Group 377" transform="translate(33.408 32.429)">
            <g id="Subtraction_1" data-name="Subtraction 1" transform="translate(0 34.257)" fill="none">
              <path d="M51.806,19.575H0a26.924,26.924,0,0,1,48.143-7.825,26.751,26.751,0,0,1,3.662,7.824Z" stroke="none"/>
              <path d="M 51.80485153198242 21.57546234130859 L 51.80554580688477 19.57569313049316 L 51.80485153198242 21.57546234130859 M 49.01040267944336 17.57546234130859 C 48.34458160400391 15.92932987213135 47.50197982788086 14.35707092285156 46.49200820922852 12.87882328033447 C 44.99440002441406 10.6867733001709 43.16646194458008 8.755172729492188 41.05886840820313 7.137632846832275 C 38.93011093139648 5.503693103790283 36.57059097290039 4.23278284072876 34.04584884643555 3.360223054885864 C 31.4342098236084 2.457643032073975 28.6947193145752 2.000003099441528 25.90347099304199 2.000003099441528 C 23.11235046386719 2.000003099441528 20.37284088134766 2.457653045654297 17.76107025146484 3.360223054885864 C 15.23645973205566 4.23270320892334 12.87683010101318 5.503623008728027 10.74773979187012 7.137672901153564 C 8.640130043029785 8.75527286529541 6.812059879302979 10.68690299987793 5.314330101013184 12.87888336181641 C 4.304380416870117 14.35702800750732 3.461807727813721 15.92915534973145 2.795885562896729 17.57546234130859 L 49.01040267944336 17.57546234130859 M 51.80624008178711 19.57546234130859 L 51.80485153198242 19.57546234130859 L 51.80624008178711 19.57546234130859 Z M 51.80624008178711 19.57546234130859 L 4.089355343239731e-08 19.57546234130859 C 0.7895600199699402 16.78413391113281 2.022289991378784 14.15188312530518 3.662980079650879 11.7505931854248 C 5.280230045318604 9.383692741394043 7.254119873046875 7.297883033752441 9.53003978729248 5.551103115081787 C 11.82993030548096 3.78596305847168 14.3792896270752 2.41286301612854 17.1077995300293 1.46992301940918 C 19.93018913269043 0.4945630729198456 22.88944053649902 3.078002919210121e-06 25.90347099304199 3.078002919210121e-06 C 28.91762924194336 3.078002919210121e-06 31.87688064575195 0.4945630729198456 34.69913101196289 1.46992301940918 C 37.42763900756836 2.412913084030151 39.97700119018555 3.786013126373291 42.27661895751953 5.551103115081787 C 44.55224990844727 7.297613143920898 46.52614974975586 9.383413314819336 48.14339828491211 11.7505931854248 C 49.7847785949707 14.15300273895264 51.01696014404297 16.78525352478027 51.80583190917969 19.57422256469727 L 51.80624008178711 19.57546234130859 Z" stroke="none" fill="#fff"/>
            </g>
            <g id="Ellipse_18" data-name="Ellipse 18" transform="translate(10.806 0)" fill="none" stroke="#fff" stroke-width="2">
              <circle cx="14.682" cy="14.682" r="14.682" stroke="none"/>
              <circle cx="14.682" cy="14.682" r="13.682" fill="none"/>
            </g>
          </g>
        </g>
      </g>
      <g id="Group_512" data-name="Group 512" transform="translate(123.96 333.579)">
        <path id="Path_1440" data-name="Path 1440" d="M412.612,400.858a312.033,312.033,0,0,0,.978-41.012c-1.576-41.92-9.993-75.633-18.8-75.3s-14.661,34.58-13.083,76.5c.437,11.6,1.4,22.572,2.747,32.369l.907,64.07c-2.376,32.832,4.285,81.974,10.069,99.113,9.439,27.973,13.5-3.182,15.848-50.268,1.225-24.577,2.064-43.813.984-57.292Z" transform="translate(-227.388 -126.646)" fill="#efd9b9"/>
        <path id="Path_1441" data-name="Path 1441" d="M461.227,281.109c-8.63-1.766-22.443,30.118-30.85,71.216a330.616,330.616,0,0,0-5.093,32.921c-.94.485-1.487.793-1.487.793s-5.662,26.994-7.421,31.175c-.882,2.094-7.609,7.352-14.1,12.077-27.653,17.792-62.431,51.623-72.65,66.258-16.9,24.209,10.58,8.974,49.854-17.106,31.708-21.055,52.715-35.3,58-46.268,4.419-7.1,13.665-23.508,16.333-40.2a23.981,23.981,0,0,0,.3-3.37c2.747-9.045,5.316-19.147,7.512-29.889C470.041,317.621,469.858,282.876,461.227,281.109Z" transform="translate(-315.099 -132.046)" fill="#efd9b9"/>
        <path id="Path_1442" data-name="Path 1442" d="M392.3,254.676a7.489,7.489,0,0,1,7.632-2.381c12.552,2.956,54.451,13.558,52.957,22.979-1.759,11.075-38.372-.544-48.55-5.253C395.857,266.1,388,260.124,392.3,254.676Z" transform="translate(-212.544 -176.699)" fill="#efd9b9"/>
        <path id="Path_1443" data-name="Path 1443" d="M406.636,251.814a7.491,7.491,0,0,0-7.975.6c-10.577,7.375-45.62,32.672-40.758,40.878,5.713,9.65,35.47-14.646,43.2-22.773C407.538,263.743,412.641,255.293,406.636,251.814Z" transform="translate(-264.399 -178.46)" fill="#efd9b9"/>
        <g id="Group_502" data-name="Group 502" transform="translate(76.152 107.017)">
          <path id="Path_1444" data-name="Path 1444" d="M370.545,264.8a9.269,9.269,0,0,0-6.038,6.757c-3.687,14.524-16.422,66.4-11.291,70.353,5.97,4.6,27.9-69.727,25.3-72.769C376.563,266.86,374.736,263.535,370.545,264.8Z" transform="translate(-348.919 -264.522)" fill="#efd9b9"/>
          <path id="Path_1445" data-name="Path 1445" d="M357.452,291.329c-5-1.3-6.275,7.578-6.6,10.625-.524,4.961,2.615,11.159,4.579,11.4s2.488-11.121,2.984-11.441.77,5.233,2.638,5.268,2.45-7.357,1.53-10.381S360.588,292.144,357.452,291.329Z" transform="translate(-350.796 -223.404)" fill="#efd9b9"/>
        </g>
        <g id="Group_503" data-name="Group 503" transform="translate(228.752 47.31)">
          <path id="Path_1446" data-name="Path 1446" d="M413.878,289.7a9.275,9.275,0,0,0,9.027-.79c12.633-8.061,57.435-37.142,56.4-43.539-1.2-7.444-68.081,31.709-68.266,35.709C410.9,284.084,409.959,287.754,413.878,289.7Z" transform="translate(-410.843 -235.776)" fill="#efd9b9"/>
          <path id="Path_1447" data-name="Path 1447" d="M447.357,252.675a30.668,30.668,0,0,1-3.909,2.9c-2.907,1.835-6.4,3.116-8.168.313-1.728-2.734-1.418-4.638,0-7.474,1.385-2.839,6.887-7.855,8.2-6.539,1.35,1.314-2.249,5.535-1.66,5.639a1.51,1.51,0,0,0,.206-.069c1.35-.8,8.582-7.647,9.794-6.229C453.067,242.743,451.128,249.422,447.357,252.675Z" transform="translate(-374.999 -241.028)" fill="#efd9b9"/>
        </g>
        <line id="Line_8" data-name="Line 8" x1="2.366" y2="18.496" transform="translate(177.836 56.126)" fill="#efd9b9"/>
        <path id="Path_1448" data-name="Path 1448" d="M450.014,393.721l-78.619-4.407-9.921-.554h-.211c1.662-98.65,18-103.85,18-103.85s1.769-.183,4.7-.368c.186,0,.371-.028.582-.028,10.661-.684,34.916-1.555,48.85,3.405,3.563,1.293,6.44,2.956,8.259,5.121,3.538,4.17,5.675,15.886,6.94,29.927C451.28,353.027,450.014,393.721,450.014,393.721Z" transform="translate(-258.512 -127.509)" fill="url(#linear-gradient)"/>
        <path id="Path_1449" data-name="Path 1449" d="M412.158,320.58c-4.828-25.152-27.261-28.212-27.261-28.212v-2.984l12.061-3.853c3.563,1.294,6.44,2.956,8.259,5.121C408.755,294.823,410.893,306.539,412.158,320.58Z" transform="translate(-222.082 -125.122)" opacity="0.2" fill="url(#linear-gradient-2)" style="mix-blend-mode: multiply;isolation: isolate"/>
        <path id="Path_1450" data-name="Path 1450" d="M430.74,296.237a105.936,105.936,0,0,1-62.393-8.115,37.669,37.669,0,0,1,3.1-6.221l58.934,7.317S430.509,291.772,430.74,296.237Z" transform="translate(-247.592 -130.718)" fill="#072f56"/>
        <g id="Group_504" data-name="Group 504" transform="translate(123.853 66.387)">
          <path id="Path_1451" data-name="Path 1451" d="M442.089,284c.013.013,0,.038,0,.064-.155,1.316-.389,2.686-.686,4.1-.051.259-.114.516-.168.775-.127.554-.257,1.083-.386,1.6-2.671,10.544-6.272,13.383-8.478,27.63-2.374,15.279-3.446,23.073-3.446,23.073s-29.035,3.7-59.358-7.911c0,0,.142-.541.386-1.522,1.408-5.871,6.259-27.627,4.737-45.216-.142-1.667-.335-3.3-.607-4.879-3.548-20.969,8.608-36.776,31.836-32.466,10.323,1.921,16.776,3.355,21.137,4.943,5.446,1.972,7.626,4.155,10.041,7.741C440.411,266.836,443.339,273.751,442.089,284Z" transform="translate(-369.566 -248.535)" fill="url(#linear-gradient-3)"/>
        </g>
        <g id="Group_505" data-name="Group 505" transform="translate(124.239 100.109)" opacity="0.5" style="mix-blend-mode: multiply;isolation: isolate">
          <path id="Path_1452" data-name="Path 1452" d="M369.718,311.355c1.408-5.871,6.259-27.627,4.737-45.216l7.136-4.336S375.848,296.374,369.718,311.355Z" transform="translate(-369.718 -261.804)" fill="url(#linear-gradient-4)"/>
        </g>
        <path id="Path_1453" data-name="Path 1453" d="M393.681,250.421l-30.97,21.722L374.97,291.07l21.937-16.56Z" transform="translate(-256.279 -179.24)" fill="url(#linear-gradient-5)"/>
        <path id="Path_1454" data-name="Path 1454" d="M415.053,229.624l-31.777-1.291,18.549,40.809s6.453,2.9,13.065-8.549.163-30.969.163-30.969" transform="translate(-224.581 -213.286)" fill="#efd9b9"/>
        <path id="Path_1455" data-name="Path 1455" d="M396.567,249.454l-7.96-8.173,1.184,22.153s2.366,7.741,2.58,6.989,2.473-6.236,2.473-6.236" transform="translate(-216.364 -193.328)" fill="#efd9b9"/>
        <path id="Path_1456" data-name="Path 1456" d="M415.646,231.114s-12.636,3.289-15.431,14.041,5.967,26.931-2.419,33.383c-.839.646-1.787,1.324-2.8,2.043-10.041,7.106-21.767,11.876-30.684,20.552-7.949,7.733-10.519,20.88-2.234,29.332,13.273,13.538,34.86,10.031,50.456,3.129,9.705-4.292,19.563-10.214,25.685-19.124,3.533-5.146,4.912-11.406,5-17.573.086-6.132-2-12.381-.424-18.45,1.416-5.441,7.113-9.357,6.943-15.286-.107-3.764-6.343-6.13-2.9-11.827s10.323-11.185,9.141-14.412-4.409-13.225-19.787-14.41S415.646,231.114,415.646,231.114Z" transform="translate(-265.124 -222.412)" fill="#1d262d"/>
        <g id="Group_506" data-name="Group 506" transform="translate(180.477 71.796)">
          <path id="Path_1457" data-name="Path 1457" d="M431.515,261.877l-5.962,21.292-17.575-2.361-.232-.026-4.478-.607-1.691-.232-9.73-29.28.865.245Z" transform="translate(-391.847 -250.663)" fill="url(#linear-gradient-6)"/>
        </g>
        <g id="Group_507" data-name="Group 507" transform="translate(186.246 98.081)" opacity="0.5" style="mix-blend-mode: multiply;isolation: isolate">
          <path id="Path_1458" data-name="Path 1458" d="M404.247,264.838c-.155,1.316-.389,2.686-.686,4.1-.051.259-.114.516-.168.775-.127.554-.257,1.083-.386,1.6-1.6-5.459-8.412-9.987-8.89-10.31Z" transform="translate(-394.117 -261.006)" fill="url(#linear-gradient-7)"/>
        </g>
        <g id="Group_509" data-name="Group 509" transform="translate(166.205 427.588)">
          <g id="Group_508" data-name="Group 508">
            <path id="Path_1459" data-name="Path 1459" d="M399.822,391.434s4.295,5.578,13.721,12.887,11.924,5.769,12.117,8.46-39.429,0-39.429,0l.8-22.117S399.822,390.857,399.822,391.434Z" transform="translate(-386.231 -390.664)" fill="#1d262d"/>
          </g>
        </g>
        <g id="Group_511" data-name="Group 511" transform="translate(0 360.753)">
          <g id="Group_510" data-name="Group 510">
            <path id="Path_1460" data-name="Path 1460" d="M345.7,374.218s-1.126,6.948,0,18.821,3.954,12.643,2.125,14.626-26.989-28.743-26.989-28.743L337.5,364.365S346.12,373.821,345.7,374.218Z" transform="translate(-320.831 -364.365)" fill="#1d262d"/>
          </g>
        </g>
        <path id="Path_1461" data-name="Path 1461" d="M442.547,252.675a30.67,30.67,0,0,1-3.909,2.9c-.45-2.041-1.212-6.816-1.421-8.13,1.35-.8,8.582-7.647,9.794-6.229C448.258,242.743,446.319,249.422,442.547,252.675Z" transform="translate(-141.437 -193.718)" fill="#efd9b9"/>
      </g>
      <g id="Group_390" data-name="Group 390" transform="translate(675.844 555.929)">
        <g id="Group_387" data-name="Group 387" transform="translate(0 15.715)">
          <path id="Path_1382" data-name="Path 1382" d="M396.089,448.465a96.213,96.213,0,0,0-.242,27.171,41.825,41.825,0,0,1,.324,7.626c-.149,2.652-.684,5.65-2.921,7.066-3.42,2.167-7.748-.953-10.17-4.191-10.561-14.094-11.188-32.71-20.188-47.6-1.387-2.29-2.909-4.556-4.481-6.831l2.638-10.081-5.492,5.967c-6.281-9.066-12.349-18.448-12.284-29.734l8.053.684s-4.241-1.74-7.986-3.2c.307-7.6,1.27-15.45-1.4-22.605-1.942-5.187-5.717-9.339-9.282-13.645l5.278-7.851s-5.007,1.575-9.368,2.47c-.334-.5-.653-1.015-.96-1.534-4.757-8.108-5.271-17.411-4.868-26.563a124.787,124.787,0,0,1,1.435-15.4c1.937.108,3.584.187,3.584.187l-2.852-3.92a52.744,52.744,0,0,1,2.46-8.007c.72-1.8,3.358-8.134,5.66-8.394,6.646-.749,12.193,5.326,14.565,11.576,2.247,5.919,3.276,11.838,5.813,17.378l-3.228,3.423,5.511.732c.266.415.542.818.84,1.222,6.781,9.272,18.743,16.5,25.695,25.57-5.309,1.445-10.345,3.2-10.345,3.2l14.663,4.577c1.726,5.043,1.606,10.777-1.539,17.649-1.018,2.23-2.143,4.364-3.154,6.517l-3.9-2.633,2.712,5.377a22.671,22.671,0,0,0-1.815,9.058c.223,9.714,6.3,17.846,11.238,26.266-.847,2.674-1.584,5.024-1.584,5.024l4.128-.4a40.045,40.045,0,0,1,2.724,6.737A39.219,39.219,0,0,1,396.089,448.465Z" transform="translate(-322.628 -290.011)" fill="url(#linear-gradient-8)"/>
          <g id="Group_386" data-name="Group 386" transform="translate(13.613 18.566)">
            <path id="Path_1383" data-name="Path 1383" d="M375.071,452.566c-2.167-23.34-8.562-33.565-14.2-42.585-2.7-4.323-5.257-8.408-6.845-13.391-1.8-5.648-2.009-12.6-2.23-19.96-.362-12.121-.737-24.653-8.206-32.754-12.738-13.811-15.28-45.787-15.285-46.089l2.223-.036-1.111.017,1.111-.022c.007.3,2.383,31.28,14.694,44.625,8.031,8.708,8.42,21.665,8.795,34.191.216,7.2.42,14,2.127,19.353,1.5,4.716,3.872,8.5,6.613,12.887,5.487,8.775,12.318,19.694,14.531,43.557Z" transform="translate(-328.3 -297.746)" fill="url(#linear-gradient-9)" style="mix-blend-mode: screen;isolation: isolate"/>
          </g>
        </g>
        <g id="Group_388" data-name="Group 388" transform="translate(42.88)">
          <path id="Path_1384" data-name="Path 1384" d="M381.071,478.148c4.249-2.119,7.753-4.813,9.721-7.741,6.658-9.918,5.924-23.242,7.794-34.554,2.225-13.458,8.233-26.751,18.883-35.281,8.636-6.917,14.435-14.6,16.245-25.879,1.781-11.084.619-22.37,1.822-33.5a174.284,174.284,0,0,1,7.059-34.335c3.012-9.491,6.2-25.344-9.539-23.194a25.418,25.418,0,0,0-16.077,9.015c-10.453,12.813-9.551,30.975-17.339,45.136-3.934,7.15-10,12.464-15.782,18.091-5.187,5.052-10.664,11.1-11.756,18.547-.636,4.325-.127,8.794-1.133,13.05-1.407,5.938-5.516,10.573-9.248,15.194a88.355,88.355,0,0,0-9.841,15.957c-7.249,14.2-14.392,32.338-10.081,48.353,1.258,4.673,3.56,9.253,7.429,12.16C357.866,485.649,372.162,482.593,381.071,478.148Z" transform="translate(-340.493 -283.463)" fill="url(#linear-gradient-10)"/>
          <path id="Path_1385" data-name="Path 1385" d="M360.111,318.587" transform="translate(-313.023 -234.282)" fill="none" stroke="#fff" stroke-linecap="round" stroke-miterlimit="10" stroke-width="1.2"/>
          <path id="Path_1386" data-name="Path 1386" d="M370.058,335a1.439,1.439,0,0,1,1.627,1.224l4.145,29.542L402.2,313.9a1.439,1.439,0,0,1,2.566,1.306l-19.284,37.924,26.837-18.8a1.44,1.44,0,0,1,1.651,2.36l-30.476,21.348a1.407,1.407,0,0,1-.624.228l-25.159,49.481,18.419-8.355a1.441,1.441,0,0,1,1.19,2.624l-20.6,9.342a1.437,1.437,0,0,1-.9.1l-4.788,9.414a1.435,1.435,0,0,1-1.935.631,1.47,1.47,0,0,1-.425-.324,1.442,1.442,0,0,1-.206-1.611L373.725,369.9a1.44,1.44,0,0,1-.326-.72l-4.568-32.559A1.44,1.44,0,0,1,370.058,335Z" transform="translate(-329.54 -241.947)" fill="url(#linear-gradient-11)" style="mix-blend-mode: screen;isolation: isolate"/>
        </g>
        <path id="Path_1387" data-name="Path 1387" d="M379.7,329.719c6.049-9.728,11.672-13.372,11.754-13.422a1.165,1.165,0,0,0,.485-.65c6.639-5.319,24.415-20.676,15.46-26.023-8.869-5.295-15.29,16.48-17.378,24.79-1.058.7-6.44,4.58-12.2,13.811,2.182-8.912,6.4-30.255-3.608-29.153-11.219,1.234-.6,26.47,1.891,32.06a87.935,87.935,0,0,0-5.967,13.11c-.408,1.121-.809,2.3-1.2,3.528,0-9.831-1.111-29.264-10.122-26.1-10.4,3.656,4.671,24.9,8.823,30.44a140.213,140.213,0,0,0-4.239,23.2c-2.129-9.056-7.993-29.614-16.346-24.156-9.351,6.106,10.986,23.51,16.026,27.619a204.646,204.646,0,0,0-.583,21.643c-3.3-8.36-12.349-28.724-19.948-21.955-8.389,7.472,14.622,21.787,20.044,24.989.221,6.07.679,12.541,1.433,19.447-5.78-6.593-21.523-23.179-26.431-14.128-5.194,9.575,19.56,15.182,26.712,16.583.821,7.011,1.925,14.437,3.382,22.329-4.436-5.216-22.291-25.207-27.579-15.458-5.513,10.167,22.752,15.863,27.836,16.8q1.426,7.575,3.272,15.693a1.179,1.179,0,0,0,1.414.886.972.972,0,0,0,.19-.062,1.177,1.177,0,0,0,.7-1.351q-1.858-8.126-3.267-15.674c5.777-.576,34.071-3.932,28.863-14.089-5.069-9.882-24.326,8.276-29.077,12.983-1.435-7.76-2.527-15.064-3.343-21.957,5.489-.54,34.242-3.872,28.995-14.1-5.086-9.915-24.456,8.4-29.12,13.029-.874-7.616-1.4-14.711-1.63-21.309,6.137-.312,34.021-2.314,29.364-12.625-4.493-9.954-24.026,6.478-29.408,11.274a204.22,204.22,0,0,1,.533-22.771c6.169.307,34.062,1.111,30.469-9.608-3.459-10.326-24.437,3.946-30.344,8.223a139.916,139.916,0,0,1,4.378-24.883c6.574.322,33.815,1.03,30.279-9.575-3.339-10.006-23.138,3.039-29.756,7.748.586-1.971,1.19-3.824,1.81-5.542A84.437,84.437,0,0,1,378.333,332c6.087.216,34.124.646,30.37-10.045C405.314,312.3,386.779,324.578,379.7,329.719Z" transform="translate(-302.678 -275.986)" fill="#1d262d"/>
        <g id="Group_389" data-name="Group 389" transform="translate(23.037 152.472)">
          <path id="Path_1388" data-name="Path 1388" d="M347.386,421.618H399.8a6.5,6.5,0,0,0,6.478-5.953l6.685-68.678h-78.74l6.685,68.678A6.5,6.5,0,0,0,347.386,421.618Z" transform="translate(-329.43 -346.987)" fill="url(#linear-gradient-2)"/>
          <rect id="Rectangle_150" data-name="Rectangle 150" width="88.325" height="13.351" rx="1.177" transform="translate(88.325 13.351) rotate(180)" fill="url(#linear-gradient-2)"/>
        </g>
      </g>
    </g>
  </g>
</svg>
