<svg xmlns="http://www.w3.org/2000/svg" width="17.202" height="21.318" viewBox="0 0 17.202 21.318">
  <path id="Path_1582" data-name="Path 1582" d="M15.979,4.756a.682.682,0,0,0-.679-.625H12.9A4.308,4.308,0,0,0,8.607.125c-.067,0-.134,0-.2,0a4.279,4.279,0,0,0-4.091,4H1.9a.685.685,0,0,0-.68.625L0,18.459v.059a3.135,3.135,0,0,0,3.116,2.925c.057,0,.114,0,.172-.005H13.906c.059,0,.116.005.174.005A3.132,3.132,0,0,0,17.2,18.528a.228.228,0,0,0,0-.078ZM4.986,7.874a.687.687,0,0,0,.687-.686V5.508h5.85v1.68a.687.687,0,0,0,1.373,0V5.508h1.771l1.16,13.017a1.775,1.775,0,0,1-1.906,1.541H3.28a1.768,1.768,0,0,1-1.907-1.52L2.528,5.508H4.3v1.68A.687.687,0,0,0,4.986,7.874Zm.7-3.743A2.946,2.946,0,0,1,8.6,1.373a2.909,2.909,0,0,1,2.92,2.758Z" transform="translate(0 -0.125)" fill="#3e5570"/>
</svg>
