<svg xmlns="http://www.w3.org/2000/svg" width="20.99" height="24.05" viewBox="0 0 20.99 24.05">
  <g id="Group_643" data-name="Group 643" transform="translate(0 -0.13)">
    <path id="Path_1583" data-name="Path 1583" d="M16.74,13.33l-.76-8.57a.678.678,0,0,0-.68-.63H12.89a4.294,4.294,0,0,0-4.28-4h-.2a4.285,4.285,0,0,0-4.1,4H1.9a.693.693,0,0,0-.68.63L0,18.46v.06a3.134,3.134,0,0,0,3.12,2.92h7.62a5.5,5.5,0,1,0,6-8.11ZM8.6,1.37a2.913,2.913,0,0,1,2.92,2.76H5.68A2.948,2.948,0,0,1,8.6,1.37ZM3.28,20.07a1.774,1.774,0,0,1-1.91-1.52L2.53,5.51H4.3V7.19a.683.683,0,0,0,.69.68.674.674,0,0,0,.68-.68V5.51h5.85V7.19a.69.69,0,0,0,1.38,0V5.51h1.77l.68,7.68a5.5,5.5,0,0,0-5.36,5.49,5.3,5.3,0,0,0,.18,1.39Zm12.21,2.81a4.191,4.191,0,0,1-3.16-1.44,3.925,3.925,0,0,1-.8-1.37,4.022,4.022,0,0,1-.24-1.39,4.215,4.215,0,0,1,4.18-4.2h.02a3.966,3.966,0,0,1,1.38.24,4.2,4.2,0,0,1-1.38,8.16Z" fill="#3e5570"/>
    <path id="Path_1584" data-name="Path 1584" d="M17.961,16.872a.647.647,0,0,0-.913,0L14.61,19.31l-.659-.689a.643.643,0,1,0-.927.892l.8.825a1.09,1.09,0,0,0,.79.349h0a1.08,1.08,0,0,0,.76-.317l2.586-2.589A.645.645,0,0,0,17.961,16.872Z" fill="#3e5570"/>
  </g>
</svg>
