<svg xmlns="http://www.w3.org/2000/svg" width="230.156" height="50" viewBox="0 0 230.156 50">
  <g id="Logo" transform="translate(-369.155 -506.401)">
    <g id="Group_2" data-name="Group 2" transform="translate(369.155 506.401)">
      <path id="Path_9" data-name="Path 9" d="M456.167,612.673H469.6L461.637,600H448.2Z" transform="translate(-426.796 -575.115)" fill="#00a5ff"/>
      <path id="Path_10" data-name="Path 10" d="M377.122,565.873h13.437L382.592,553.2H369.155Z" transform="translate(-369.155 -540.758)" fill="#00a5ff"/>
      <path id="Path_11" data-name="Path 11" d="M412.011,659.472H398.574l7.967-12.672h13.437Z" transform="translate(-390.608 -609.472)" fill="#00a5ff"/>
      <path id="Path_12" data-name="Path 12" d="M432.229,519.074H418.792l7.967-12.673H440.2Z" transform="translate(-405.351 -506.402)" fill="#00a5ff"/>
    </g>
    <g id="Group_3" data-name="Group 3" transform="translate(417.548 508.972)">
      <path id="Path_13" data-name="Path 13" d="M574.46,530.794h-4.049a8.486,8.486,0,0,1-4.266-.761,2.558,2.558,0,0,1-1.122-2.342v-3.841a3.213,3.213,0,0,1,1.453-3.013c1.008-.611,3.118-.921,6.271-.921a63.65,63.65,0,0,1,8.991.879l.312.048v-4.347l-.24-.027a79.221,79.221,0,0,0-8.7-.573c-5.084,0-8.637.662-10.56,1.967A6.939,6.939,0,0,0,559.6,524v2.7c0,2.726.7,4.824,2.075,6.237s3.827,2.133,7.28,2.133H572.9c2.041,0,3.462.288,4.225.855a3.307,3.307,0,0,1,1.111,2.82v4.361a2.9,2.9,0,0,1-1.73,3,14.374,14.374,0,0,1-5.371.783,52.118,52.118,0,0,1-10.534-1.292l-.327-.069V550.3l.235.032a79.518,79.518,0,0,0,10.315.833c4.36,0,7.625-.705,9.7-2.1,2.112-1.414,3.183-4,3.183-7.674v-2.44c0-2.794-.655-4.876-1.947-6.186S578.014,530.794,574.46,530.794Z" transform="translate(-559.602 -515.895)" fill="#01126c"/>
      <path id="Path_14" data-name="Path 14" d="M693.13,549.742a5.721,5.721,0,0,0-2.64-1.5,15.041,15.041,0,0,0-3.146-.608c-.959-.069-2.284-.1-3.939-.1s-2.981.035-3.939.1a15.019,15.019,0,0,0-3.146.608,5.715,5.715,0,0,0-2.64,1.5,7.871,7.871,0,0,0-1.51,2.741,13.2,13.2,0,0,0-.612,4.294V565.5a12.392,12.392,0,0,0,.774,4.778,5.1,5.1,0,0,0,2.627,2.709,11.832,11.832,0,0,0,3.56,1.036,44.128,44.128,0,0,0,4.886.209c1.621,0,2.946-.035,3.938-.1a15.618,15.618,0,0,0,3.17-.581,6,6,0,0,0,2.635-1.419,6.888,6.888,0,0,0,1.517-2.593,12.2,12.2,0,0,0,.587-4.036v-8.721a13.216,13.216,0,0,0-.612-4.294A7.884,7.884,0,0,0,693.13,549.742ZM683.4,570.627c-1.34,0-2.361-.034-3.036-.1a6.263,6.263,0,0,1-1.941-.523,2.151,2.151,0,0,1-1.206-1.274,7.623,7.623,0,0,1-.347-2.553V556c0-2.2.427-3.577,1.269-4.076.889-.526,2.659-.793,5.261-.793s4.372.267,5.261.793c.842.5,1.269,1.87,1.269,4.076v10.175a7.633,7.633,0,0,1-.347,2.553A2.154,2.154,0,0,1,688.381,570a6.271,6.271,0,0,1-1.941.523C685.765,570.593,684.743,570.627,683.4,570.627Z" transform="translate(-641.241 -539.274)" fill="#01126c"/>
      <path id="Path_15" data-name="Path 15" d="M807.808,549.7h0c-1.585-1.442-4.117-2.173-7.528-2.173-4.506,0-7.259.747-8.347,2.276v-1.757h-5.162V584.51h5.214V572.644a4.93,4.93,0,0,0,2.152,1.059,16.2,16.2,0,0,0,4.118.528c1.379,0,2.574-.044,3.554-.131a15.368,15.368,0,0,0,3.171-.66,7.418,7.418,0,0,0,2.773-1.485,7.138,7.138,0,0,0,1.757-2.669,10.782,10.782,0,0,0,.695-4.047v-10.33A6.841,6.841,0,0,0,807.808,549.7Zm-9.5,1.743c2.5,0,4.246.309,5.2.918.916.585,1.38,2,1.38,4.21v9.24c0,2-.454,3.295-1.35,3.844-.938.576-2.681.868-5.179.868-2.463,0-4.169-.291-5.072-.866-.864-.549-1.3-1.843-1.3-3.847v-9.24c0-2.247.423-3.674,1.257-4.24C794.109,551.741,795.814,551.442,798.308,551.442Z" transform="translate(-725.258 -539.651)" fill="#01126c"/>
      <path id="Path_16" data-name="Path 16" d="M921.682,549.7h0c-1.584-1.442-4.117-2.173-7.528-2.173-4.506,0-7.258.747-8.347,2.276v-1.757h-5.162V584.51h5.213V572.644a4.929,4.929,0,0,0,2.152,1.059,16.2,16.2,0,0,0,4.118.528c1.379,0,2.574-.044,3.554-.131a15.365,15.365,0,0,0,3.171-.66,7.421,7.421,0,0,0,2.774-1.485,7.138,7.138,0,0,0,1.757-2.669,10.784,10.784,0,0,0,.695-4.047v-10.33A6.841,6.841,0,0,0,921.682,549.7Zm-9.5,1.743c2.5,0,4.246.309,5.2.918.916.585,1.38,2,1.38,4.21v9.24c0,2-.454,3.295-1.35,3.844-.938.576-2.681.868-5.179.868-2.463,0-4.17-.291-5.072-.866-.864-.549-1.3-1.843-1.3-3.847v-9.24c0-2.247.423-3.674,1.257-4.24C907.983,551.741,909.687,551.442,912.181,551.442Z" transform="translate(-808.296 -539.651)" fill="#01126c"/>
      <rect id="Rectangle_6" data-name="Rectangle 6" width="5.214" height="5.421" transform="translate(123.185 0)" fill="#01126c"/>
      <rect id="Rectangle_7" data-name="Rectangle 7" width="5.214" height="25.667" transform="translate(123.185 8.769)" fill="#01126c"/>
      <path id="Path_17" data-name="Path 17" d="M1062.829,569.5l-6.856-20.06H1050.3l9.811,25.76-4.048,10.7h5.464l12.8-36.465h-5.306Z" transform="translate(-917.425 -541.049)" fill="#01126c"/>
      <path id="Path_18" data-name="Path 18" d="M1170.1,549.119c-1.308-1.072-4.047-1.593-8.374-1.593-2.764,0-5.9.158-9.317.468l-.246.023V552l.306-.04a67.317,67.317,0,0,1,8.582-.621,10.633,10.633,0,0,1,4.668.691,2.679,2.679,0,0,1,1.136,2.568v3.727H1159.6c-3.664,0-6.082.539-7.391,1.647s-1.965,3.122-1.965,5.995c0,3.291.707,5.519,2.1,6.623s3.8,1.642,7.358,1.642c3.856,0,6.268-.642,7.308-1.956v1.436h5.058V555.688C1172.07,552.353,1171.426,550.2,1170.1,549.119Zm-7.377,21.457c-.6.034-1.351.052-2.243.052h-.935c-1.74,0-2.883-.324-3.4-.964a5.853,5.853,0,0,1-.8-3.542c0-2.355.4-3.258.729-3.6s1.263-.748,3.828-.748h6.945v6.581a1.571,1.571,0,0,1-.509,1.228,3.372,3.372,0,0,1-1.611.713A14.188,14.188,0,0,1,1162.725,570.576Z" transform="translate(-990.307 -539.274)" fill="#01126c"/>
    </g>
  </g>
</svg>
